<?xml version="1.0" encoding="UTF-8" standalone="no"?>
<svg
   xmlns:dc="http://purl.org/dc/elements/1.1/"
   xmlns:cc="http://creativecommons.org/ns#"
   xmlns:rdf="http://www.w3.org/1999/02/22-rdf-syntax-ns#"
   xmlns:svg="http://www.w3.org/2000/svg"
   xmlns="http://www.w3.org/2000/svg"
   xmlns:sodipodi="http://sodipodi.sourceforge.net/DTD/sodipodi-0.dtd"
   xmlns:inkscape="http://www.inkscape.org/namespaces/inkscape"
   width="102.943mm"
   height="68.127998mm"
   viewBox="0 0 102.943 68.127998"
   version="1.1"
   id="svg1935"
   inkscape:version="1.0.2-2 (e86c870879, 2021-01-15)"
   sodipodi:docname="JT_logo.svg">
  <defs
     id="defs1929" />
  <sodipodi:namedview
     id="base"
     pagecolor="#ffffff"
     bordercolor="#666666"
     borderopacity="1.0"
     inkscape:pageopacity="0.0"
     inkscape:pageshadow="2"
     inkscape:zoom="0.7"
     inkscape:cx="392.8467"
     inkscape:cy="239.94812"
     inkscape:document-units="mm"
     inkscape:current-layer="layer1"
     inkscape:document-rotation="0"
     showgrid="false"
     showguides="true"
     inkscape:guide-bbox="true"
     inkscape:window-width="1920"
     inkscape:window-height="1027"
     inkscape:window-x="-8"
     inkscape:window-y="-8"
     inkscape:window-maximized="1" />
  <metadata
     id="metadata1932">
    <rdf:RDF>
      <cc:Work
         rdf:about="">
        <dc:format>image/svg+xml</dc:format>
        <dc:type
           rdf:resource="http://purl.org/dc/dcmitype/StillImage" />
        <dc:title></dc:title>
      </cc:Work>
    </rdf:RDF>
  </metadata>
  <g
     inkscape:label="Capa 1"
     inkscape:groupmode="layer"
     id="layer1">
    <g
       id="g2623"
       transform="matrix(1.4233004,0,0,1.4233004,-300.68977,-136.17744)">
      <g
         id="g1927"
         transform="rotate(-10.132678,91.921528,2149.4531)">
        <path
           id="path1799"
           style="fill:#ffcd20;fill-opacity:1;stroke:none;stroke-width:1;stroke-miterlimit:4;stroke-dasharray:none;stroke-opacity:1"
           d="m 623.35624,163.08674 c -11.2389,-4.06381 -23.6442,1.7528 -27.70792,12.99175 -1.80988,5.00543 -1.6554,10.24068 0.0602,14.86884 0,0 0.38833,1.66044 2.7502,5.16293 2.45829,3.40862 5.93139,6.13958 10.18184,7.67632 11.23902,4.06356 23.64418,-1.75334 27.70761,-12.9924 4.0635,-11.23882 -1.75315,-23.6438 -12.99192,-27.70744 z"
           sodipodi:nodetypes="ssccsss" />
        <path
           id="path875"
           d="m 605.2918,199.61527 c -2.49408,-1.771 -4.9707,-4.48611 -5.13739,-5.63212 -0.0439,-0.30166 0.0594,-0.9337 0.22997,-1.40446 0.28893,-0.79913 0.68197,-1.03322 5.91485,-3.52293 3.08297,-1.4668 5.96919,-2.71624 6.4138,-2.77652 0.76651,-0.10393 0.82082,-0.0738 1.04753,0.58005 0.22252,0.64184 0.0788,1.11737 -2.07258,6.8602 l -2.31176,6.17052 -0.78688,0.36833 c -1.01072,0.47316 -1.99598,0.28103 -3.29732,-0.64304 z m 6.66418,2.5402 c -0.2167,-0.19613 -0.51858,-0.66287 -0.67079,-1.03732 -0.25971,-0.6388 -0.14569,-1.05541 1.84739,-6.74945 2.23573,-6.38729 2.60054,-7.0895 3.60053,-6.93153 0.32879,0.052 1.28318,1.83271 3.31393,6.18343 2.76168,5.91673 2.84141,6.14011 2.51434,7.04472 -0.20973,0.58006 -0.59045,1.0917 -1.00422,1.34961 -0.91554,0.57061 -4.55714,1.01848 -6.84993,0.84248 -2.0822,-0.15982 -2.17949,-0.18463 -2.75125,-0.70194 z m -14.24479,-13.28675 c -0.53643,-0.86068 -1.03385,-5.17116 -0.83247,-7.21351 0.17684,-1.79324 0.57273,-2.51291 1.6345,-2.97139 0.77791,-0.33588 0.82205,-0.32436 6.85717,1.78814 6.38072,2.23347 7.09507,2.6033 6.93871,3.59287 -0.0498,0.31578 -1.91317,1.31571 -6.17853,3.31572 -5.92795,2.77959 -6.13465,2.85365 -7.04627,2.52404 -0.59855,-0.21642 -1.09652,-0.59209 -1.37311,-1.03587 z m 24.08192,4.73625 c -1.42428,-2.99567 -2.68076,-5.87966 -2.79219,-6.40887 l -0.20266,-0.96221 0.7046,-0.24429 c 0.66069,-0.22905 1.08588,-0.10139 6.82222,2.04828 6.72418,2.51982 6.9299,2.64438 6.88696,4.16823 -0.0393,1.39601 -2.3701,4.5008 -4.75075,6.32857 -1.45255,1.11516 -2.02104,1.2609 -3.22334,0.82619 -0.79737,-0.2883 -1.0307,-0.67817 -3.44484,-5.7559 z m -21.47493,-16.7534 c -1.8284,-1.47753 -1.44482,-3.09913 1.49871,-6.33542 2.4095,-2.64908 3.76042,-3.36503 5.29952,-2.80854 0.86073,0.31121 1.02882,0.58898 3.4938,5.77359 1.42423,2.99565 2.67893,5.87102 2.78818,6.38969 0.18536,0.8801 0.16357,0.95949 -0.32626,1.18939 -0.45933,0.21567 -1.26821,-0.0161 -6.48762,-1.85854 -3.2796,-1.15772 -6.0996,-2.21498 -6.2664,-2.35026 z m 20.17252,7.12915 c -0.25735,-0.27899 -0.43508,-0.71509 -0.39495,-0.96908 0.10082,-0.63938 11.96275,-6.16359 12.89328,-6.00466 0.9094,0.1554 1.76252,1.00913 2.0543,2.05597 0.38516,1.38184 0.63286,4.69933 0.47529,6.36584 -0.1695,1.79288 -0.56451,2.51408 -1.62857,2.97353 -0.77786,0.33589 -0.82203,0.32438 -6.85714,-1.78813 -4.61505,-1.61537 -6.18717,-2.24664 -6.54221,-2.63347 z m -8.12458,-10.51831 c -1.88583,-4.05653 -2.77578,-6.26659 -2.70056,-6.7067 0.15539,-0.90939 1.00913,-1.76254 2.05599,-2.05432 1.38179,-0.38518 4.69932,-0.63287 6.36579,-0.4753 1.79312,0.16954 2.51423,0.56456 2.97347,1.62885 l 0.33794,0.78322 -2.29925,6.35913 c -2.17949,6.02793 -2.32884,6.36776 -2.86683,6.52517 -0.31218,0.0913 -0.677,0.12647 -0.81075,0.0781 -0.1337,-0.0483 -1.50883,-2.8105 -3.0558,-6.13815 z m 6.23996,6.65728 c -0.23369,-0.98427 4.08735,-12.5981 4.91623,-13.21372 0.78103,-0.58005 1.95138,-0.47796 3.12973,0.273 2.45662,1.56564 5.41894,4.70113 5.59685,5.92402 0.11639,0.80006 -0.31066,1.80028 -0.98111,2.29825 -0.86395,0.64159 -9.64068,4.80539 -10.97115,5.20482 -1.38728,0.4165 -1.48267,0.38906 -1.69055,-0.48637 z"
           style="fill:#ffe485;fill-opacity:1;stroke-width:0.164505"
           sodipodi:nodetypes="sssccccccssccssscsscccsccscccccsccscscscccsssccscscscccccccscsccccsccc" />
        <path
           id="path1660"
           style="color:#000000;font-style:normal;font-variant:normal;font-weight:normal;font-stretch:normal;font-size:29.2759px;line-height:1.25;font-family:sans-serif;-inkscape-font-specification:sans-serif;font-variant-ligatures:normal;font-variant-position:normal;font-variant-caps:normal;font-variant-numeric:normal;font-variant-alternates:normal;font-variant-east-asian:normal;font-feature-settings:normal;font-variation-settings:normal;text-indent:0;text-align:start;text-decoration:none;text-decoration-line:none;text-decoration-style:solid;text-decoration-color:#000000;letter-spacing:normal;word-spacing:normal;text-transform:none;writing-mode:lr-tb;direction:ltr;text-orientation:mixed;dominant-baseline:auto;baseline-shift:baseline;text-anchor:start;white-space:normal;shape-padding:0;shape-margin:0;inline-size:0;clip-rule:nonzero;display:inline;overflow:visible;visibility:visible;isolation:auto;mix-blend-mode:normal;color-interpolation:sRGB;color-interpolation-filters:linearRGB;solid-color:#000000;solid-opacity:1;vector-effect:none;fill:#5c9238;fill-opacity:1;fill-rule:nonzero;stroke:none;stroke-width:0.251632;stroke-linecap:butt;stroke-linejoin:miter;stroke-miterlimit:4;stroke-dasharray:none;stroke-dashoffset:0;stroke-opacity:1;color-rendering:auto;image-rendering:auto;shape-rendering:auto;text-rendering:auto;enable-background:accumulate;stop-color:#000000"
           d="m 627.66686,189.42446 -0.0429,0.11836 -0.32901,0.90993 -2.59797,-0.93933 -0.27152,0.75096 1.33011,0.48092 c -0.0873,0.91926 0.0406,1.81231 0.37971,2.67391 -0.93969,0.33788 -1.90425,0.47658 -2.89969,0.40565 l -0.1364,-0.01 0.0117,0.99205 0.11769,0.006 c 1.05081,0.0565 2.15798,-0.13592 3.31767,-0.56427 0.59547,1.02154 1.30489,1.82121 2.13369,2.38402 l 0.0933,0.0633 0.64238,-0.75363 -0.1155,-0.079 c -0.89626,-0.6132 -1.54479,-1.28659 -1.96543,-2.01497 0.80732,-0.49605 1.4347,-1.11487 1.87519,-1.8546 l 1.29758,0.46915 0.27152,-0.75095 -2.625,-0.94912 0.3718,-1.0283 -0.14565,-0.0527 z m -1.07317,1.62385 1.80055,0.65102 c -0.32738,0.49463 -0.80643,0.93945 -1.44425,1.33232 -0.30356,-0.76684 -0.41788,-1.42746 -0.3563,-1.98334 z" />
        <text
           xml:space="preserve"
           style="font-style:normal;font-weight:normal;font-size:9.87778px;line-height:1.25;font-family:sans-serif;fill:#5c9238;fill-opacity:1;stroke:none;stroke-width:0.192821"
           x="643.62909"
           y="-45.549068"
           id="text1751"
           transform="rotate(19.878288)"><tspan
             sodipodi:role="line"
             id="tspan1749"
             x="643.62909"
             y="-45.549068"
             style="font-style:normal;font-variant:normal;font-weight:bold;font-stretch:normal;font-size:9.87778px;font-family:'Open Sans';-inkscape-font-specification:'Open Sans Bold';fill:#5c9238;fill-opacity:1;stroke-width:0.192821">å</tspan></text>
        <text
           xml:space="preserve"
           style="font-size:7.7611px;line-height:1.25;font-family:'Open Sans';-inkscape-font-specification:'Open Sans';fill:#5c9238;fill-opacity:1;stroke-width:0.264583"
           x="643.70862"
           y="-21.222677"
           id="text1755"
           transform="rotate(19.878288)"><tspan
             sodipodi:role="line"
             id="tspan1753"
             x="643.70862"
             y="-21.222677"
             style="font-style:normal;font-variant:normal;font-weight:bold;font-stretch:normal;font-family:'Open Sans';-inkscape-font-specification:'Open Sans Bold';fill:#5c9238;fill-opacity:1;stroke-width:0.264583">あ</tspan></text>
        <text
           xml:space="preserve"
           style="font-size:9.87778px;line-height:1.25;font-family:'Open Sans';-inkscape-font-specification:'Open Sans';fill:#5c9238;fill-opacity:1;stroke-width:0.264583"
           x="633.79761"
           y="-48.010479"
           id="text1759"
           transform="rotate(19.878288)"><tspan
             sodipodi:role="line"
             id="tspan1757"
             x="633.79761"
             y="-48.010479"
             style="font-style:normal;font-variant:normal;font-weight:bold;font-stretch:normal;font-size:9.87778px;font-family:'Open Sans';-inkscape-font-specification:'Open Sans Bold';fill:#5c9238;fill-opacity:1;stroke-width:0.264583">л</tspan></text>
        <text
           xml:space="preserve"
           style="font-size:9.87778px;line-height:1.25;font-family:'Open Sans';-inkscape-font-specification:'Open Sans';fill:#5c9238;fill-opacity:1;stroke-width:0.400059"
           x="633.16034"
           y="-20.590433"
           id="text1763"
           transform="rotate(19.878288)"><tspan
             sodipodi:role="line"
             id="tspan1761"
             x="633.16034"
             y="-20.590433"
             style="font-style:normal;font-variant:normal;font-weight:bold;font-stretch:normal;font-size:9.87778px;font-family:'Open Sans';-inkscape-font-specification:'Open Sans Bold';fill:#5c9238;fill-opacity:1;stroke-width:0.400059">α</tspan></text>
        <text
           xml:space="preserve"
           style="font-size:9.87778px;line-height:1.25;font-family:'Open Sans';-inkscape-font-specification:'Open Sans';fill:#5c9238;fill-opacity:1;stroke-width:0.264583"
           x="652.0481"
           y="-38.813885"
           id="text1767"
           transform="rotate(19.878288)"><tspan
             sodipodi:role="line"
             id="tspan1765"
             x="652.0481"
             y="-38.813885"
             style="font-style:normal;font-variant:normal;font-weight:bold;font-stretch:normal;font-size:9.87778px;font-family:'Open Sans';-inkscape-font-specification:'Open Sans Bold';fill:#5c9238;fill-opacity:1;stroke-width:0.264583">â</tspan></text>
      </g>
      <g
         id="g1806"
         transform="translate(-334.19104,-61.536096)">
        <path
           d="m 564.16943,160.12904 c -0.55354,-0.029 -1.106,-0.0266 -1.70671,8.9e-4 -2.6838,0.12275 -3.86267,0.54147 -4.70051,1.5861 l -0.3051,0.38033 0.7793,0.9327 0.85878,0.86776 c 0.78418,-0.0353 1.26935,-0.0528 2.0145,-0.24859 4.15617,-1.0927 8.41006,-0.96088 12.22562,0.2964 0.41834,-0.31123 1.47847,-2.04888 1.50305,-2.51542 0.0153,-0.28805 -0.17514,-0.49495 -0.46947,-0.51036 -0.12849,-0.008 -0.60934,0.0883 -1.06884,0.21126 -0.78668,0.21042 -0.90834,0.21983 -2.08367,0.16003 -1.09514,-0.0556 -1.44516,-0.1115 -2.85463,-0.45555 -1.75164,-0.42757 -2.97451,-0.64197 -4.19232,-0.70555 z"
           style="fill:#5c9238;fill-opacity:1;stroke:none;stroke-width:0.449953;stroke-miterlimit:4;stroke-dasharray:none;stroke-opacity:1"
           id="path1652" />
        <path
           id="path996"
           style="fill:#ffcd20;fill-opacity:1;stroke:none;stroke-width:3.77953;stroke-miterlimit:4;stroke-dasharray:none;stroke-opacity:1"
           d="m 2143.3438,611.17188 c -45.1694,-7.6e-4 -81.7869,36.61583 -81.7872,81.78515 3e-4,45.16932 36.6178,81.78591 81.7872,81.78516 45.1684,-3.4e-4 81.7848,-36.61659 81.7851,-81.78516 0,-17.79171 -5.8017,-35.09815 -16.5254,-49.29492 -4.0981,-5.01978 -8.8826,-9.96327 -14.4805,-14.81641 -14.4508,-11.44577 -32.3448,-17.67376 -50.7792,-17.67382 z"
           transform="scale(0.26458333)"
           sodipodi:nodetypes="ccssccc" />
        <path
           d="m 548.9699,157.25437 c -0.28397,-0.0353 -0.41418,-0.0637 -0.72009,-0.0153 -1.16985,0.18566 -0.8489,1.79448 0.38463,2.11467 0.9702,0.25181 2.71883,0.99206 3.82567,1.6196 1.1217,0.63592 2.03109,1.30414 3.04739,2.23897 0.57624,0.53004 0.56549,0.6151 -0.074,0.58377 -0.95481,-0.0469 -2.73281,0.54073 -3.77809,1.24851 -1.18697,0.80376 -2.26875,2.02704 -3.11707,3.52465 -1.02194,1.80412 -1.47446,3.63766 -1.40566,5.69576 0.0398,1.18827 0.12676,1.82227 0.54669,3.98298 0.45955,2.36445 0.51104,2.91188 0.42596,4.53611 -0.0545,1.0398 -0.0461,1.48315 0.0317,1.70117 0.0841,0.23501 0.1518,0.2972 0.33397,0.30675 0.50939,0.0266 1.25862,-0.6745 2.49054,-2.33088 0.36134,-0.48586 1.13035,-1.44527 1.70884,-2.13209 2.47631,-2.94003 3.83826,-5.41118 4.40999,-8.00152 0.32477,-1.4714 0.49834,-2.76617 0.52455,-3.9101 -0.008,-0.006 -0.0133,-0.0101 -0.0204,-0.0153 0.0391,-1.63338 -0.22164,-2.65481 -0.6169,-3.54783 -0.16539,-0.37386 -0.0986,-0.51196 -0.002,-0.59231 0.21462,-0.17934 0.93354,-0.4252 1.97058,-0.91883 0.0659,-0.0314 0.0909,-0.0377 0.13996,-0.0584 l -0.63791,-0.15539 c -2.33668,-2.70095 -5.2203,-4.59629 -8.65086,-5.68608 -0.32567,-0.11777 -0.4234,-0.1434 -0.81716,-0.18928 z"
           style="fill:#78b454;fill-opacity:1;stroke:none;stroke-width:0.449953;stroke-miterlimit:4;stroke-dasharray:none;stroke-opacity:1"
           id="path1654"
           sodipodi:nodetypes="csssssssssssssssccsssccccc" />
        <text
           xml:space="preserve"
           style="font-style:normal;font-weight:normal;font-size:33.0103px;line-height:1.25;font-family:sans-serif;fill:#5c9238;fill-opacity:1;stroke:none;stroke-width:0.960951;stroke-miterlimit:4;stroke-dasharray:none;stroke-opacity:1"
           x="558.29132"
           y="192.50648"
           id="text1658"><tspan
             sodipodi:role="line"
             x="558.29132"
             y="192.50648"
             style="font-style:normal;font-variant:normal;font-weight:bold;font-stretch:normal;font-family:'Open Sans';-inkscape-font-specification:'Open Sans Bold';fill:#5c9238;fill-opacity:1;stroke:none;stroke-width:0.960951;stroke-miterlimit:4;stroke-dasharray:none;stroke-opacity:1"
             id="tspan1656">a</tspan></text>
      </g>
    </g>
  </g>
</svg>
