<?xml version="1.0" encoding="UTF-8" standalone="no"?>
<svg
   xmlns:dc="http://purl.org/dc/elements/1.1/"
   xmlns:cc="http://creativecommons.org/ns#"
   xmlns:rdf="http://www.w3.org/1999/02/22-rdf-syntax-ns#"
   xmlns:svg="http://www.w3.org/2000/svg"
   xmlns="http://www.w3.org/2000/svg"
   xmlns:sodipodi="http://sodipodi.sourceforge.net/DTD/sodipodi-0.dtd"
   xmlns:inkscape="http://www.inkscape.org/namespaces/inkscape"
   width="348.418mm"
   height="68.127998mm"
   viewBox="0 0 348.418 68.127998"
   version="1.1"
   id="svg1935"
   inkscape:version="1.0.2-2 (e86c870879, 2021-01-15)"
   sodipodi:docname="JT_logo_letra_horizontal.svg">
  <defs
     id="defs1929" />
  <sodipodi:namedview
     id="base"
     pagecolor="#ffffff"
     bordercolor="#666666"
     borderopacity="1.0"
     inkscape:pageopacity="0.0"
     inkscape:pageshadow="2"
     inkscape:zoom="0.49497475"
     inkscape:cx="779.59693"
     inkscape:cy="154.85555"
     inkscape:document-units="mm"
     inkscape:current-layer="layer1"
     inkscape:document-rotation="0"
     showgrid="false"
     showguides="true"
     inkscape:guide-bbox="true"
     inkscape:window-width="1920"
     inkscape:window-height="1027"
     inkscape:window-x="-8"
     inkscape:window-y="-8"
     inkscape:window-maximized="1">
    <sodipodi:guide
       position="342.10499,25.765779"
       orientation="1,0"
       id="guide881" />
    <sodipodi:guide
       position="348.38582,42.33649"
       orientation="1,0"
       id="guide883" />
  </sodipodi:namedview>
  <metadata
     id="metadata1932">
    <rdf:RDF>
      <cc:Work
         rdf:about="">
        <dc:format>image/svg+xml</dc:format>
        <dc:type
           rdf:resource="http://purl.org/dc/dcmitype/StillImage" />
        <dc:title />
      </cc:Work>
    </rdf:RDF>
  </metadata>
  <g
     inkscape:label="Capa 1"
     inkscape:groupmode="layer"
     id="layer1">
    <path
       id="path1799"
       style="fill:#ffcd20;fill-opacity:1;stroke:none;stroke-width:1.4233;stroke-miterlimit:4;stroke-dasharray:none;stroke-opacity:1"
       d="M 77.352549,6.9692127 C 60.58814,4.0896092 44.66353,15.345539 41.784066,32.109996 c -1.282472,7.466305 0.244869,14.762739 3.807484,20.817675 0,0 0.959861,2.229207 5.146099,6.545141 4.297827,4.160269 9.84782,7.116961 16.187929,8.205782 C 83.690092,70.557817 99.614433,59.301516 102.49346,42.536978 105.37265,25.772759 94.116747,9.848608 77.352563,6.9692102 Z"
       sodipodi:nodetypes="ssccsss" />
    <path
       id="path875"
       d="m 61.189135,62.672692 c -3.937914,-1.856836 -8.087769,-5.040838 -8.608278,-6.604775 -0.137044,-0.411664 -0.150572,-1.323082 -0.02946,-2.025375 0.204719,-1.192009 0.696792,-1.61841 7.405167,-6.417052 3.952268,-2.827106 7.683296,-5.300404 8.291146,-5.496192 1.047934,-0.33755 1.131572,-0.308934 1.612939,0.550409 0.472489,0.843564 0.390195,1.545817 -1.18611,10.130805 l -1.693919,9.224385 -1.010269,0.713101 c -1.297643,0.916028 -2.726201,0.893542 -4.780896,-0.07532 z m 9.973254,1.890375 c -0.35273,-0.220536 -0.892565,-0.798896 -1.199588,-1.285425 -0.523835,-0.829993 -0.4684,-1.442256 0.898327,-9.919247 1.533115,-9.509063 1.868418,-10.584278 3.309061,-10.613343 0.473688,-0.0095 2.256773,2.246506 6.191474,7.833808 5.350934,7.598416 5.518578,7.89143 5.286833,9.240778 -0.148607,0.865239 -0.55392,1.67743 -1.069073,2.142396 -1.139885,1.028732 -6.129989,2.568095 -9.38649,2.895613 -2.957391,0.297456 -3.099917,0.287056 -4.030544,-0.29458 z M 47.877012,49.513862 c -0.967106,-1.071578 -2.74338,-6.986444 -2.972628,-9.898408 -0.201254,-2.556791 0.173223,-3.664252 1.546068,-4.572495 1.005826,-0.665389 1.070556,-0.660301 10.055337,0.788339 9.499292,1.531594 10.592774,1.870891 10.621484,3.296531 0.0093,0.45491 -2.351092,2.322498 -7.826494,6.192755 -7.609652,5.378838 -7.880715,5.534361 -9.240521,5.300812 -0.89282,-0.15335 -1.684594,-0.555011 -2.183246,-1.107534 z m 34.927158,0.605885 c -2.745673,-3.840599 -5.228276,-7.56674 -5.516914,-8.280315 l -0.524883,-1.297408 0.926046,-0.518705 c 0.86834,-0.486359 1.49604,-0.413961 10.071507,1.161572 10.052216,1.846797 10.371641,1.969807 10.693047,4.115627 0.294496,1.965792 -2.193755,6.899546 -5.071616,10.056548 -1.755935,1.926169 -2.515953,2.272714 -4.309348,1.964696 -1.189386,-0.204277 -1.613928,-0.692099 -6.267839,-7.202015 z M 48.52059,32.023832 c -2.931745,-1.61234 -2.800357,-3.980414 0.513464,-9.251839 2.712627,-4.314965 4.42613,-5.656352 6.721909,-5.262042 1.283896,0.220511 1.588961,0.567605 6.340867,7.214541 2.745597,3.840584 5.223547,7.555093 5.506492,8.254446 0.480084,1.186695 0.469433,1.303385 -0.159302,1.748151 -0.589564,0.417191 -1.780922,0.295 -9.555188,-0.979512 -4.884943,-0.800875 -9.100785,-1.576079 -9.368362,-1.723853 z m 30.048872,4.937489 C 78.13903,36.634867 77.780813,36.068351 77.773441,35.702436 77.7546,34.781355 92.991109,24.071166 94.334672,24.06084 c 1.313073,-0.01 2.722154,0.97256 3.393094,2.366228 0.885659,1.839654 2.063407,6.425769 2.259928,8.800174 0.211446,2.554449 -0.161414,3.663833 -1.537224,4.574008 -1.005754,0.665391 -1.070523,0.660325 -10.055292,-0.788332 -6.870639,-1.107695 -9.231407,-1.598511 -9.825716,-2.051597 z M 64.552332,24.258488 c -3.657988,-5.2114 -5.458294,-8.085075 -5.463106,-8.720549 -0.01,-1.313057 0.972555,-2.722182 2.366251,-3.393127 1.839579,-0.885675 6.425753,-2.063419 8.800101,-2.2599291 2.554795,-0.2114522 3.664056,0.1614461 4.573995,1.5376311 l 0.669605,1.01275 -1.629164,9.485514 c -1.544301,8.991482 -1.668462,9.505015 -2.382825,9.860274 -0.414535,0.20609 -0.916878,0.346717 -1.116387,0.312437 -0.199422,-0.03419 -2.817769,-3.559986 -5.81847,-7.835001 z m 10.40979,7.765045 c -0.573883,-1.320546 2.572243,-18.67468 3.579438,-19.744776 0.949058,-1.008278 2.6144,-1.158294 4.453427,-0.40118 3.834007,1.578486 8.76964,5.229864 9.32512,6.898708 0.363408,1.091821 0.01552,2.600163 -0.799156,3.465749 -1.049828,1.115265 -12.304305,9.146851 -14.068411,10.039641 -1.839429,0.930932 -1.979951,0.916371 -2.490418,-0.258142 z"
       style="fill:#ffe485;fill-opacity:1;stroke-width:0.23414"
       sodipodi:nodetypes="sssccccccssccssscsscccsccscccccsccscscscccsssccscscscccccccscsccccsccc" />
    <path
       id="path1660"
       style="color:#000000;font-style:normal;font-variant:normal;font-weight:normal;font-stretch:normal;font-size:29.2759px;line-height:1.25;font-family:sans-serif;-inkscape-font-specification:sans-serif;font-variant-ligatures:normal;font-variant-position:normal;font-variant-caps:normal;font-variant-numeric:normal;font-variant-alternates:normal;font-variant-east-asian:normal;font-feature-settings:normal;font-variation-settings:normal;text-indent:0;text-align:start;text-decoration:none;text-decoration-line:none;text-decoration-style:solid;text-decoration-color:#000000;letter-spacing:normal;word-spacing:normal;text-transform:none;writing-mode:lr-tb;direction:ltr;text-orientation:mixed;dominant-baseline:auto;baseline-shift:baseline;text-anchor:start;white-space:normal;shape-padding:0;shape-margin:0;inline-size:0;clip-rule:nonzero;display:inline;overflow:visible;visibility:visible;isolation:auto;mix-blend-mode:normal;color-interpolation:sRGB;color-interpolation-filters:linearRGB;solid-color:#000000;solid-opacity:1;vector-effect:none;fill:#5c9238;fill-opacity:1;fill-rule:nonzero;stroke:none;stroke-width:0.358148;stroke-linecap:butt;stroke-linejoin:miter;stroke-miterlimit:4;stroke-dasharray:none;stroke-dashoffset:0;stroke-opacity:1;color-rendering:auto;image-rendering:auto;shape-rendering:auto;text-rendering:auto;enable-background:accumulate;stop-color:#000000"
       d="m 89.987094,42.79165 -0.03047,0.176577 -0.233132,1.357287 -3.875225,-0.665568 -0.192388,1.120159 1.98404,0.34076 c 0.107866,1.309836 0.510685,2.529064 1.201556,3.65134 -1.231996,0.708701 -2.548712,1.144558 -3.961185,1.294435 l -0.193614,0.02014 0.264801,1.387033 0.166398,-0.02106 c 1.486439,-0.183959 2.989514,-0.730793 4.507099,-1.621339 1.090106,1.282176 2.284311,2.224957 3.586471,2.80598 l 0.146573,0.06533 0.711331,-1.216763 -0.181608,-0.08177 c -1.409296,-0.634733 -2.486568,-1.41583 -3.258313,-2.331036 1.006927,-0.897168 1.730998,-1.921293 2.162942,-3.068028 l 1.935516,0.332415 0.19239,-1.120145 -3.915549,-0.672517 0.263444,-1.533851 -0.217266,-0.03737 z m -1.09701,2.543899 2.685767,0.461289 c -0.334838,0.775003 -0.894653,1.518194 -1.689929,2.228354 -0.617334,-0.99841 -0.942926,-1.89538 -0.995838,-2.689643 z" />
    <g
       aria-label="å"
       transform="rotate(9.7456105)"
       id="text1751"
       style="font-style:normal;font-weight:normal;font-size:14.059px;line-height:1.25;font-family:sans-serif;fill:#5c9238;fill-opacity:1;stroke:none;stroke-width:0.274442">
      <path
         d="m 86.179368,12.330393 -0.40502,-1.043442 h -0.05492 q -0.528585,0.665881 -1.091495,0.926741 -0.556044,0.253996 -1.455326,0.253996 -1.105224,0 -1.743645,-0.631557 -0.631557,-0.631557 -0.631557,-1.798563 0,-1.2219252 0.851229,-1.7985638 0.858093,-0.5835035 2.581144,-0.6452862 l 1.331761,-0.041188 V 7.216157 q 0,-1.1670068 -1.194466,-1.1670068 -0.919876,0 -2.162395,0.5560444 L 81.511341,5.1910569 q 1.324896,-0.6933394 2.938111,-0.6933394 1.544568,0 2.368337,0.6727452 0.82377,0.6727451 0.82377,2.0456943 v 5.114236 z m -0.617827,-3.5559386 -0.81004,0.027459 q -0.913011,0.027459 -1.35922,0.3295079 -0.446208,0.3020488 -0.446208,0.9198758 0,0.885552 1.015982,0.885552 0.727663,0 1.160142,-0.418749 0.439344,-0.41875 0.439344,-1.112089 z m 0.707069,-6.597021 q 0,0.7413925 -0.487397,1.1944658 -0.487397,0.4530732 -1.256249,0.4530732 -0.768851,0 -1.235654,-0.4393437 -0.466803,-0.4393438 -0.466803,-1.1944659 0,-0.7413925 0.459938,-1.1807363 0.466803,-0.44620848 1.242519,-0.44620848 0.755122,0 1.249384,0.45307328 0.494262,0.4530732 0.494262,1.1601421 z m -1.08463,0.013729 q 0,-0.3089135 -0.185348,-0.4805322 -0.185348,-0.1784834 -0.473668,-0.1784834 -0.288319,0 -0.473667,0.1784834 -0.185348,0.1716187 -0.185348,0.4805322 0,0.3089136 0.164753,0.487397 0.164754,0.1784834 0.494262,0.1784834 0.28832,0 0.473668,-0.1784834 0.185348,-0.1784834 0.185348,-0.487397 z"
         style="font-style:normal;font-variant:normal;font-weight:bold;font-stretch:normal;font-size:14.059px;font-family:'Open Sans';-inkscape-font-specification:'Open Sans Bold';fill:#5c9238;fill-opacity:1;stroke-width:0.274442"
         id="path1082" />
    </g>
    <g
       aria-label="あ"
       transform="rotate(9.7456105)"
       id="text1755"
       style="font-size:11.0464px;line-height:1.25;font-family:'Open Sans';-inkscape-font-specification:'Open Sans';fill:#5c9238;fill-opacity:1;stroke-width:0.376581">
      <path
         d="m 85.277092,47.531286 -0.188781,-1.305287 q 3.025894,0 3.025894,-2.02805 0,-1.07875 -1.003238,-1.5534 -0.765912,1.8123 -2.087381,3.139162 -1.321469,1.326863 -2.578212,1.326863 -0.73355,0 -1.143475,-0.480044 -0.409925,-0.485438 -0.409925,-1.353831 0,-1.046388 0.636462,-1.963325 0.641856,-0.916938 1.688244,-1.4671 -0.01079,-0.463863 -0.01079,-1.370013 h -2.125137 v -1.213594 h 2.1575 q 0.01618,-0.420712 0.03776,-1.278318 h 1.472494 q -0.0054,0.539375 -0.04854,1.278318 h 4.320394 v 1.213594 h -4.385119 q -0.01079,0.56095 -0.01079,0.90615 0.571737,-0.12945 1.132687,-0.12945 1.688244,0 2.772388,0.787488 1.089537,0.787487 1.089537,2.233012 0,1.580369 -1.192018,2.421794 -1.192019,0.836031 -3.031288,0.836031 z m 0.593313,-5.13485 q -0.107875,-0.01079 -0.188781,-0.01079 -0.420713,0 -1.062569,0.194175 0.04315,0.933118 0.167206,1.731393 0.609494,-0.803668 1.084144,-1.914781 z m -2.567425,0.814456 q -1.0356,0.922332 -1.0356,1.94175 0,0.685007 0.372169,0.685007 0.415318,0 0.981662,-0.507013 -0.21575,-0.927725 -0.318231,-2.119744 z"
         style="font-style:normal;font-variant:normal;font-weight:bold;font-stretch:normal;font-family:'Open Sans';-inkscape-font-specification:'Open Sans Bold';fill:#5c9238;fill-opacity:1;stroke-width:0.376581"
         id="path1088" />
    </g>
    <g
       aria-label="л"
       transform="rotate(9.7456105)"
       id="text1759"
       style="font-size:14.059px;line-height:1.25;font-family:'Open Sans';-inkscape-font-specification:'Open Sans';fill:#5c9238;fill-opacity:1;stroke-width:0.376581">
      <path
         d="M 74.18386,8.8270664 H 72.090113 V 2.7243071 h -1.928994 q -0.219672,2.5742798 -0.53545,3.8442579 -0.315778,1.2631132 -0.844364,1.8328872 -0.521721,0.5629091 -1.372949,0.5629091 -0.727663,0 -1.194466,-0.2196718 V 7.0696914 q 0.336373,0.1372949 0.672745,0.1372949 0.391291,0 0.652151,-0.5629091 0.267725,-0.5629092 0.473668,-1.8740757 0.212807,-1.3180313 0.363831,-3.6177212 h 5.807575 z"
         style="font-style:normal;font-variant:normal;font-weight:bold;font-stretch:normal;font-size:14.059px;font-family:'Open Sans';-inkscape-font-specification:'Open Sans Bold';fill:#5c9238;fill-opacity:1;stroke-width:0.376581"
         id="path1079" />
    </g>
    <g
       aria-label="α"
       transform="rotate(9.7456105)"
       id="text1763"
       style="font-size:14.059px;line-height:1.25;font-family:'Open Sans';-inkscape-font-specification:'Open Sans';fill:#5c9238;fill-opacity:1;stroke-width:0.569404">
      <path
         d="m 69.583599,46.323188 q 0.81004,0 1.173871,-0.487397 0.370697,-0.494261 0.398156,-1.723051 v -0.08238 q 0,-1.235654 -0.384426,-1.771104 -0.377561,-0.53545 -1.221925,-0.53545 -1.47592,0 -1.47592,2.334013 0,1.132683 0.363831,1.702457 0.370696,0.562909 1.146413,0.562909 z m -0.638422,1.668134 q -1.407273,0 -2.210448,-1.043442 -0.79631,-1.043441 -0.79631,-2.903787 0,-1.9084 0.830634,-2.951841 0.837499,-1.043442 2.334013,-1.043442 0.810041,0 1.331761,0.28832 0.528586,0.288319 0.871823,0.864958 h 0.102971 q 0.164754,-0.645286 0.459938,-1.022847 h 1.729916 q -0.219672,0.66588 -0.356967,1.530838 -0.13043,0.858093 -0.13043,1.572027 v 2.141801 q 0,0.81004 0.576639,0.81004 0.219672,0 0.40502,-0.06865 v 1.647539 q -0.109836,0.06865 -0.425614,0.123566 -0.308914,0.05492 -0.514856,0.05492 -0.768852,0 -1.173872,-0.260861 -0.40502,-0.267725 -0.638421,-0.885552 h -0.14416 q -0.755122,1.146413 -2.251637,1.146413 z"
         style="font-style:normal;font-variant:normal;font-weight:bold;font-stretch:normal;font-size:14.059px;font-family:'Open Sans';-inkscape-font-specification:'Open Sans Bold';fill:#5c9238;fill-opacity:1;stroke-width:0.569404"
         id="path1091" />
    </g>
    <g
       aria-label="â"
       transform="rotate(9.7456105)"
       id="text1767"
       style="font-size:14.059px;line-height:1.25;font-family:'Open Sans';-inkscape-font-specification:'Open Sans';fill:#5c9238;fill-opacity:1;stroke-width:0.376581">
      <path
         d="m 98.162148,21.916582 -0.40502,-1.043441 h -0.05492 q -0.528585,0.66588 -1.091494,0.92674 -0.556045,0.253996 -1.455326,0.253996 -1.105224,0 -1.743646,-0.631557 -0.631556,-0.631556 -0.631556,-1.798563 0,-1.221925 0.851228,-1.798564 0.858093,-0.583503 2.581145,-0.645286 l 1.33176,-0.04119 v -0.336373 q 0,-1.167007 -1.194466,-1.167007 -0.919876,0 -2.162395,0.556045 l -0.693339,-1.414138 q 1.324896,-0.693339 2.938111,-0.693339 1.544568,0 2.368338,0.672745 0.823769,0.672745 0.823769,2.045694 v 5.114236 z m -0.617827,-3.555938 -0.81004,0.02746 q -0.913011,0.02746 -1.359219,0.329507 -0.446209,0.302049 -0.446209,0.919876 0,0.885553 1.015982,0.885553 0.727664,0 1.160143,-0.41875 0.439343,-0.418749 0.439343,-1.112089 z M 97.9768,13.404297 q -1.077765,-0.638421 -1.60635,-1.208195 -0.53545,0.556044 -1.572027,1.208195 h -1.393544 v -0.185348 q 1.297437,-1.297437 1.757375,-2.066289 h 2.450715 q 0.212807,0.356967 0.734528,0.974794 0.528585,0.610963 1.022847,1.091495 v 0.185348 z"
         style="font-style:normal;font-variant:normal;font-weight:bold;font-stretch:normal;font-size:14.059px;font-family:'Open Sans';-inkscape-font-specification:'Open Sans Bold';fill:#5c9238;fill-opacity:1;stroke-width:0.376581"
         id="path1085" />
    </g>
    <path
       d="m 26.638625,4.1499367 c -0.787853,-0.041276 -1.57417,-0.03786 -2.429161,0.00127 -3.819853,0.1747101 -5.497739,0.7706745 -6.690237,2.2574968 l -0.434249,0.5413238 1.109178,1.3275123 1.222302,1.2350832 C 20.532581,9.462377 21.223124,9.4374692 22.283696,9.1588012 28.199175,7.6035609 34.253738,7.7911803 39.684426,9.5806675 40.27985,9.1376937 41.788733,6.6644957 41.823718,6.0004692 41.845494,5.5904875 41.574441,5.2960066 41.155521,5.2740736 40.972641,5.2626872 40.288247,5.399751 39.63424,5.57476 38.514559,5.8742509 38.3414,5.8876441 36.668552,5.8025308 35.109839,5.7233953 34.611655,5.6438328 32.605556,5.1541463 30.112446,4.5455857 28.371935,4.2404301 26.638625,4.1499367 Z"
       style="fill:#5c9238;fill-opacity:1;stroke:none;stroke-width:0.640418;stroke-miterlimit:4;stroke-dasharray:none;stroke-opacity:1"
       id="path1652" />
    <path
       id="path996"
       style="fill:#ffcd20;fill-opacity:1;stroke:none;stroke-width:1.4233;stroke-miterlimit:4;stroke-dasharray:none;stroke-opacity:1"
       d="M 30.799802,6.39427 C 13.789839,6.3939838 3.6343076e-4,20.183116 2.504563e-4,37.193049 3.6343076e-4,54.202982 13.789839,67.992115 30.799802,67.991833 47.809388,67.991704 61.598449,54.2027 61.598562,37.193049 c 0,-6.70003 -2.184813,-13.217316 -6.223161,-18.563558 C 53.832133,16.739135 52.030378,14.877508 49.922312,13.049905 44.480407,8.7396388 37.741857,6.3942926 30.799802,6.39427 Z"
       sodipodi:nodetypes="ccssccc" />
    <path
       d="M 5.0051283,0.05841772 C 4.6009536,0.00817522 4.4156257,-0.03224651 3.9802239,0.03664123 2.3151759,0.30089118 2.7719842,2.5907253 4.5276679,3.0464519 5.908554,3.4048532 8.3973797,4.4584513 9.9727455,5.3516292 c 1.5965165,0.9051052 2.8908515,1.856183 4.3373515,3.1867269 0.820163,0.7544062 0.804862,0.8754721 -0.105324,0.8308801 -1.358982,-0.066753 -3.88961,0.7696208 -5.3773573,1.7770048 -1.6894149,1.143992 -3.2291128,2.885087 -4.436527,5.016636 -1.4545276,2.567804 -2.0985995,5.177483 -2.0006764,8.106777 0.056647,1.691265 0.1804176,2.593638 0.7781041,5.668977 0.6540777,3.365323 0.7273634,4.14448 0.606269,6.456247 -0.07757,1.479948 -0.065614,2.110968 0.045119,2.421276 0.1196995,0.33449 0.216057,0.423005 0.4753396,0.436598 0.725015,0.03786 1.7913943,-0.960016 3.5447866,-3.317543 0.5142953,-0.691524 1.6088276,-2.057053 2.4321924,-3.034604 3.524533,-4.184546 5.462997,-7.701735 6.27674,-11.388567 0.462246,-2.094244 0.709288,-3.937091 0.746593,-5.565247 -0.01139,-0.0085 -0.01893,-0.01437 -0.02904,-0.02178 0.05565,-2.324791 -0.31546,-3.778592 -0.878034,-5.049628 -0.235399,-0.532115 -0.140337,-0.728673 -0.0028,-0.843035 0.305468,-0.2552549 1.328708,-0.6051875 2.804727,-1.3077713 0.0938,-0.044692 0.129378,-0.053658 0.199205,-0.083121 L 18.481435,8.4202933 C 15.155637,4.5760301 11.05138,1.8783919 6.1686621,0.3272934 5.7051359,0.15967131 5.5660367,0.12319212 5.0055979,0.0578911 Z"
       style="fill:#78b454;fill-opacity:1;stroke:none;stroke-width:0.640418;stroke-miterlimit:4;stroke-dasharray:none;stroke-opacity:1"
       id="path1654"
       sodipodi:nodetypes="csssssssssssssssccsssccccc" />
    <g
       aria-label="a"
       id="text1658"
       style="font-style:normal;font-weight:normal;font-size:46.9836px;line-height:1.25;font-family:sans-serif;fill:#5c9238;fill-opacity:1;stroke:none;stroke-width:1.36772;stroke-miterlimit:4;stroke-dasharray:none;stroke-opacity:1">
      <path
         d="m 38.231164,50.232765 -1.353531,-3.487064 h -0.18353 q -1.766473,2.225298 -3.647653,3.097064 -1.858238,0.848824 -4.863536,0.848824 -3.693535,0 -5.827068,-2.110591 -2.110592,-2.110591 -2.110592,-6.010597 0,-4.083536 2.844711,-6.010598 2.867651,-1.950003 8.625895,-2.156474 l 4.450595,-0.137647 v -1.124119 q 0,-3.900006 -3.991771,-3.900006 -3.074122,0 -7.226481,1.858238 L 22.63114,26.373906 q 4.427654,-2.317063 9.818839,-2.317063 5.161772,0 7.914718,2.248239 2.752945,2.248239 2.752945,6.836481 v 17.091202 z m -2.064709,-11.883547 -2.707063,0.09177 q -3.051181,0.09176 -4.54236,1.101178 -1.491178,1.009413 -1.491178,3.074122 0,2.959416 3.395299,2.959416 2.431768,0 3.877065,-1.399414 1.468237,-1.399413 1.468237,-3.716476 z"
         style="font-style:normal;font-variant:normal;font-weight:bold;font-stretch:normal;font-family:'Open Sans';-inkscape-font-specification:'Open Sans Bold';fill:#5c9238;fill-opacity:1;stroke:none;stroke-width:1.36772;stroke-miterlimit:4;stroke-dasharray:none;stroke-opacity:1"
         id="path1033" />
    </g>
    <path
       d="m 109.36479,48.445135 q -1.56967,0 -2.73571,-0.328882 v -3.856899 q 1.19594,0.298985 2.18258,0.298985 1.52482,0 2.18259,-0.95675 0.65777,-0.941801 0.65777,-2.959946 V 20.161214 h 4.63425 v 20.450531 q 0,3.827 -1.74906,5.830195 -1.74905,2.003195 -5.17242,2.003195 z"
       style="font-style:normal;font-variant:normal;font-weight:bold;font-stretch:normal;font-size:30.616px;line-height:1.25;font-family:'Open Sans';-inkscape-font-specification:'Open Sans Bold';fill:#5c9238;fill-opacity:1;stroke:none;stroke-width:0.765401"
       id="path885" />
    <path
       d="m 133.26859,42.016972 -0.61292,-2.137739 h -0.23919 q -0.73251,1.166039 -2.07794,1.808856 -1.34543,0.627867 -3.06459,0.627867 -2.945,0 -4.43992,-1.569668 -1.49492,-1.584617 -1.49492,-4.544562 V 25.303745 h 4.55951 v 9.76184 q 0,1.808855 0.64282,2.720758 0.64281,0.896953 2.04804,0.896953 1.9135,0 2.76561,-1.270684 0.8521,-1.285632 0.8521,-4.245578 v -7.863289 h 4.55951 v 16.713227 z"
       style="font-style:normal;font-variant:normal;font-weight:bold;font-stretch:normal;font-size:30.616px;line-height:1.25;font-family:'Open Sans';-inkscape-font-specification:'Open Sans Bold';fill:#5c9238;fill-opacity:1;stroke:none;stroke-width:0.765401"
       id="path887" />
    <path
       d="m 141.35611,20.983421 q 0,-2.227433 2.48157,-2.227433 2.48157,0 2.48157,2.227433 0,1.061395 -0.62786,1.659364 -0.61292,0.583019 -1.85371,0.583019 -2.48157,0 -2.48157,-2.242383 z m 4.75386,21.033551 h -4.55952 V 25.303745 h 4.55952 z"
       style="font-style:normal;font-variant:normal;font-weight:bold;font-stretch:normal;font-size:30.616px;line-height:1.25;font-family:'Open Sans';-inkscape-font-specification:'Open Sans Bold';fill:#5c9238;fill-opacity:1;stroke:none;stroke-width:0.765401"
       id="path889" />
    <path
       d="m 157.68066,42.315956 q -7.80349,0 -7.80349,-8.565902 0,-4.260527 2.12279,-6.50291 2.12278,-2.257332 6.08433,-2.257332 2.90015,0 5.20233,1.13614 l -1.34543,3.528016 q -1.07635,-0.433527 -2.0032,-0.702613 -0.92685,-0.284035 -1.8537,-0.284035 -3.55792,0 -3.55792,5.052835 0,4.903344 3.55792,4.903344 1.31553,0 2.43672,-0.343832 1.12119,-0.358781 2.24238,-1.106242 v 3.901746 q -1.10624,0.702613 -2.24238,0.971699 -1.12119,0.269086 -2.84035,0.269086 z"
       style="font-style:normal;font-variant:normal;font-weight:bold;font-stretch:normal;font-size:30.616px;line-height:1.25;font-family:'Open Sans';-inkscape-font-specification:'Open Sans Bold';fill:#5c9238;fill-opacity:1;stroke:none;stroke-width:0.765401"
       id="path891" />
    <path
       d="m 164.24337,25.303745 h 4.99304 l 3.15428,9.403059 q 0.40363,1.225836 0.55312,2.900148 h 0.0897 q 0.16444,-1.539769 0.64281,-2.900148 l 3.09449,-9.403059 h 4.8884 l -7.07098,18.850965 q -0.9717,2.616113 -2.78056,3.916695 -1.79391,1.300582 -4.20073,1.300582 -1.18099,0 -2.31713,-0.254137 v -3.617711 q 0.82221,0.19434 1.79391,0.19434 1.21088,0 2.10784,-0.747461 0.9119,-0.732511 1.42017,-2.227433 l 0.26909,-0.822207 z"
       style="font-style:normal;font-variant:normal;font-weight:bold;font-stretch:normal;font-size:30.616px;line-height:1.25;font-family:'Open Sans';-inkscape-font-specification:'Open Sans Bold';fill:#5c9238;fill-opacity:1;stroke:none;stroke-width:0.765401"
       id="path893" />
    <path
       d="m 200.79421,42.016972 h -4.63426 V 24.018113 h -5.93484 v -3.856899 h 16.50394 v 3.856899 h -5.93484 z"
       style="font-style:normal;font-variant:normal;font-weight:bold;font-stretch:normal;font-size:30.616px;line-height:1.25;font-family:'Open Sans';-inkscape-font-specification:'Open Sans Bold';fill:#5c9238;fill-opacity:1;stroke:none;stroke-width:0.765401"
       id="path895" />
    <path
       d="m 219.06215,24.989812 q 0.92685,0 1.53977,0.134543 l -0.34383,4.275476 q -0.55312,-0.149492 -1.34543,-0.149492 -2.18259,0 -3.40842,1.121191 -1.21089,1.121192 -1.21089,3.139336 v 8.506106 h -4.55951 V 25.303745 h 3.45327 l 0.67271,2.810454 h 0.22424 q 0.77736,-1.405227 2.09289,-2.257332 1.33048,-0.867055 2.8852,-0.867055 z"
       style="font-style:normal;font-variant:normal;font-weight:bold;font-stretch:normal;font-size:30.616px;line-height:1.25;font-family:'Open Sans';-inkscape-font-specification:'Open Sans Bold';fill:#5c9238;fill-opacity:1;stroke:none;stroke-width:0.765401"
       id="path897" />
    <path
       d="m 234.25056,42.016972 -0.88201,-2.272282 h -0.11959 q -1.15109,1.450075 -2.37693,2.018145 -1.21088,0.553121 -3.16923,0.553121 -2.40683,0 -3.7971,-1.375328 -1.37533,-1.375328 -1.37533,-3.916695 0,-2.660961 1.8537,-3.916696 1.86865,-1.270683 5.62091,-1.405226 l 2.90015,-0.08969 v -0.732512 q 0,-2.541367 -2.60117,-2.541367 -2.00319,0 -4.709,1.210886 l -1.50987,-3.079539 q 2.8852,-1.509871 6.39826,-1.509871 3.36358,0 5.15748,1.465024 1.79391,1.465023 1.79391,4.454867 v 11.137168 z m -1.34543,-7.743696 -1.76401,0.0598 q -1.98825,0.0598 -2.95995,0.717563 -0.9717,0.657765 -0.9717,2.003195 0,1.928449 2.21249,1.928449 1.58462,0 2.52642,-0.911902 0.95675,-0.911902 0.95675,-2.421773 z"
       style="font-style:normal;font-variant:normal;font-weight:bold;font-stretch:normal;font-size:30.616px;line-height:1.25;font-family:'Open Sans';-inkscape-font-specification:'Open Sans Bold';fill:#5c9238;fill-opacity:1;stroke:none;stroke-width:0.765401"
       id="path899" />
    <path
       d="m 257.55638,42.016972 h -4.55951 v -9.76184 q 0,-1.808855 -0.64281,-2.705809 -0.64282,-0.911902 -2.04805,-0.911902 -1.9135,0 -2.7656,1.285633 -0.85211,1.270683 -0.85211,4.230629 v 7.863289 h -4.55951 V 25.303745 h 3.48317 l 0.61292,2.137739 h 0.25413 q 0.76241,-1.210887 2.09289,-1.823805 1.34543,-0.627867 3.04964,-0.627867 2.9151,0 4.42497,1.584617 1.50987,1.569668 1.50987,4.544562 z"
       style="font-style:normal;font-variant:normal;font-weight:bold;font-stretch:normal;font-size:30.616px;line-height:1.25;font-family:'Open Sans';-inkscape-font-specification:'Open Sans Bold';fill:#5c9238;fill-opacity:1;stroke:none;stroke-width:0.765401"
       id="path901" />
    <path
       d="m 273.91084,37.053831 q 0,2.571266 -1.79391,3.916695 -1.77895,1.34543 -5.33687,1.34543 -1.8238,0 -3.10944,-0.254137 -1.28563,-0.239187 -2.40682,-0.717562 v -3.767203 q 1.27068,0.597968 2.8553,1.001597 1.59957,0.403629 2.81045,0.403629 2.48157,0 2.48157,-1.435125 0,-0.538172 -0.32888,-0.867054 -0.32888,-0.343832 -1.13614,-0.762411 -0.80726,-0.433527 -2.15269,-1.001597 -1.92845,-0.807258 -2.84035,-1.494922 -0.89695,-0.687664 -1.31553,-1.569668 -0.40363,-0.896953 -0.40363,-2.197535 0,-2.227434 1.71916,-3.43832 1.73411,-1.225836 4.90335,-1.225836 3.01974,0 5.87504,1.315531 l -1.37533,3.288828 q -1.25573,-0.538172 -2.34703,-0.882004 -1.09129,-0.343832 -2.22743,-0.343832 -2.01814,0 -2.01814,1.091293 0,0.612918 0.64281,1.061395 0.65777,0.448476 2.8553,1.33048 1.95835,0.792309 2.87025,1.479973 0.9119,0.687664 1.34543,1.584617 0.43353,0.896953 0.43353,2.137738 z"
       style="font-style:normal;font-variant:normal;font-weight:bold;font-stretch:normal;font-size:30.616px;line-height:1.25;font-family:'Open Sans';-inkscape-font-specification:'Open Sans Bold';fill:#5c9238;fill-opacity:1;stroke:none;stroke-width:0.765401"
       id="path903" />
    <path
       d="m 282.02827,42.016972 h -4.55951 V 18.755988 h 4.55951 z"
       style="font-style:normal;font-variant:normal;font-weight:bold;font-stretch:normal;font-size:30.616px;line-height:1.25;font-family:'Open Sans';-inkscape-font-specification:'Open Sans Bold';fill:#5c9238;fill-opacity:1;stroke:none;stroke-width:0.765401"
       id="path905" />
    <path
       d="m 297.42596,42.016972 -0.882,-2.272282 h -0.11959 q -1.15109,1.450075 -2.37693,2.018145 -1.21089,0.553121 -3.16923,0.553121 -2.40683,0 -3.79711,-1.375328 -1.37532,-1.375328 -1.37532,-3.916695 0,-2.660961 1.8537,-3.916696 1.86865,-1.270683 5.62091,-1.405226 l 2.90014,-0.08969 v -0.732512 q 0,-2.541367 -2.60116,-2.541367 -2.0032,0 -4.709,1.210886 l -1.50988,-3.079539 q 2.8852,-1.509871 6.39827,-1.509871 3.36357,0 5.15748,1.465024 1.79391,1.465023 1.79391,4.454867 v 11.137168 z m -1.34543,-7.743696 -1.764,0.0598 q -1.98825,0.0598 -2.95995,0.717563 -0.9717,0.657765 -0.9717,2.003195 0,1.928449 2.21249,1.928449 1.58461,0 2.52641,-0.911902 0.95675,-0.911902 0.95675,-2.421773 z"
       style="font-style:normal;font-variant:normal;font-weight:bold;font-stretch:normal;font-size:30.616px;line-height:1.25;font-family:'Open Sans';-inkscape-font-specification:'Open Sans Bold';fill:#5c9238;fill-opacity:1;stroke:none;stroke-width:0.765401"
       id="path907" />
    <path
       d="m 312.34527,38.683296 q 1.19594,0 2.87025,-0.523223 v 3.393473 q -1.70421,0.76241 -4.18578,0.76241 -2.73571,0 -3.99144,-1.375328 -1.24079,-1.390277 -1.24079,-4.155883 v -8.057629 h -2.18258 v -1.928449 l 2.51147,-1.52482 1.31553,-3.528016 h 2.9151 v 3.557914 h 4.6791 v 3.423371 h -4.6791 v 8.057629 q 0,0.971699 0.53817,1.435125 0.55312,0.463426 1.45007,0.463426 z"
       style="font-style:normal;font-variant:normal;font-weight:bold;font-stretch:normal;font-size:30.616px;line-height:1.25;font-family:'Open Sans';-inkscape-font-specification:'Open Sans Bold';fill:#5c9238;fill-opacity:1;stroke:none;stroke-width:0.765401"
       id="path909" />
    <path
       d="m 322.22671,33.63046 q 0,2.48157 0.80725,3.752254 0.82221,1.270683 2.66096,1.270683 1.82381,0 2.61612,-1.255734 0.80726,-1.270683 0.80726,-3.767203 0,-2.48157 -0.80726,-3.722355 -0.80726,-1.240785 -2.64601,-1.240785 -1.82381,0 -2.63107,1.240785 -0.80725,1.225836 -0.80725,3.722355 z m 11.55574,0 q 0,4.081137 -2.15269,6.383316 -2.15268,2.30218 -5.99463,2.30218 -2.40683,0 -4.24558,-1.046445 -1.83875,-1.061395 -2.8254,-3.034692 -0.98665,-1.973296 -0.98665,-4.604359 0,-4.096086 2.13774,-6.368367 2.13774,-2.272281 6.00958,-2.272281 2.40683,0 4.24558,1.046445 1.83876,1.046445 2.8254,3.004793 0.98665,1.958348 0.98665,4.58941 z"
       style="font-style:normal;font-variant:normal;font-weight:bold;font-stretch:normal;font-size:30.616px;line-height:1.25;font-family:'Open Sans';-inkscape-font-specification:'Open Sans Bold';fill:#5c9238;fill-opacity:1;stroke:none;stroke-width:0.765401"
       id="path911" />
    <path
       d="m 346.87797,24.989812 q 0.92685,0 1.53977,0.134543 l -0.34383,4.275476 q -0.55312,-0.149492 -1.34543,-0.149492 -2.18259,0 -3.40842,1.121191 -1.21089,1.121192 -1.21089,3.139336 v 8.506106 h -4.55951 V 25.303745 h 3.45327 l 0.67271,2.810454 h 0.22424 q 0.77736,-1.405227 2.09289,-2.257332 1.33048,-0.867055 2.8852,-0.867055 z"
       style="font-style:normal;font-variant:normal;font-weight:bold;font-stretch:normal;font-size:30.616px;line-height:1.25;font-family:'Open Sans';-inkscape-font-specification:'Open Sans Bold';fill:#5c9238;fill-opacity:1;stroke:none;stroke-width:0.765401"
       id="path913" />
    <g
       aria-label="Neural machine translator powered by lemons"
       id="text2627"
       style="font-size:10.5764px;line-height:1.25;font-family:'Open Sans';-inkscape-font-specification:'Open Sans';fill:#5c9238;fill-opacity:1;stroke-width:0.360562">
      <path
         d="m 117.95584,59.505482 h -1.51313 l -3.7131,-6.016361 h -0.0413 l 0.0258,0.335677 q 0.0723,0.960552 0.0723,1.755848 v 3.924836 h -1.12064 v -7.550145 h 1.49763 l 3.70278,5.985375 h 0.031 q -0.0103,-0.118778 -0.0413,-0.862431 -0.031,-0.748818 -0.031,-1.167123 v -3.955821 h 1.13098 z"
         style="font-style:normal;font-variant:normal;font-weight:600;font-stretch:normal;font-family:'Open Sans';-inkscape-font-specification:'Open Sans Semi-Bold';fill:#5c9238;fill-opacity:1;stroke-width:0.360562"
         id="path931" />
      <path
         d="m 122.31447,59.608767 q -1.33238,0 -2.08636,-0.774639 -0.74882,-0.779803 -0.74882,-2.143167 0,-1.399514 0.69718,-2.199974 0.69717,-0.800459 1.91594,-0.800459 1.13097,0 1.78683,0.686846 0.65586,0.686846 0.65586,1.890118 v 0.655861 h -3.80606 q 0.0258,0.831445 0.44929,1.280736 0.42347,0.444126 1.19295,0.444126 0.50609,0 0.93989,-0.09296 0.43896,-0.09812 0.93989,-0.320184 v 0.986374 q -0.44412,0.211734 -0.89858,0.299526 -0.45445,0.08779 -1.03801,0.08779 z m -0.22206,-4.999002 q -0.5784,0 -0.92957,0.366663 -0.34601,0.366662 -0.41314,1.069001 h 2.59246 q -0.0103,-0.707503 -0.34085,-1.069001 -0.33051,-0.366663 -0.9089,-0.366663 z"
         style="font-style:normal;font-variant:normal;font-weight:600;font-stretch:normal;font-family:'Open Sans';-inkscape-font-specification:'Open Sans Semi-Bold';fill:#5c9238;fill-opacity:1;stroke-width:0.360562"
         id="path933" />
      <path
         d="m 129.94208,59.505482 -0.17042,-0.748818 h -0.062 q -0.25304,0.397648 -0.72299,0.624876 -0.46478,0.227227 -1.06384,0.227227 -1.03801,0 -1.54928,-0.516426 -0.51126,-0.516426 -0.51126,-1.56477 v -3.733758 h 1.22393 v 3.522023 q 0,0.655861 0.26854,0.986374 0.26854,0.325348 0.84178,0.325348 0.76431,0 1.12064,-0.454455 0.3615,-0.459619 0.3615,-1.533784 v -2.845506 h 1.21876 v 5.711669 z"
         style="font-style:normal;font-variant:normal;font-weight:600;font-stretch:normal;font-family:'Open Sans';-inkscape-font-specification:'Open Sans Semi-Bold';fill:#5c9238;fill-opacity:1;stroke-width:0.360562"
         id="path935" />
      <path
         d="m 135.52464,53.690528 q 0.36666,0 0.60422,0.05164 l -0.11878,1.130973 q -0.25821,-0.06197 -0.53708,-0.06197 -0.72816,0 -1.18262,0.475112 -0.44929,0.475112 -0.44929,1.234258 v 2.984941 h -1.2136 v -5.711669 h 0.95022 l 0.1601,1.00703 h 0.062 q 0.28403,-0.511262 0.73849,-0.810789 0.45961,-0.299526 0.98637,-0.299526 z"
         style="font-style:normal;font-variant:normal;font-weight:600;font-stretch:normal;font-family:'Open Sans';-inkscape-font-specification:'Open Sans Semi-Bold';fill:#5c9238;fill-opacity:1;stroke-width:0.360562"
         id="path937" />
      <path
         d="m 140.7612,59.505482 -0.24272,-0.795296 h -0.0413 q -0.41314,0.52159 -0.83144,0.712668 -0.41831,0.185913 -1.07417,0.185913 -0.84177,0 -1.31688,-0.454455 -0.46995,-0.454454 -0.46995,-1.2859 0,-0.883088 0.65586,-1.332378 0.65586,-0.449291 1.99857,-0.490605 l 0.98637,-0.03099 v -0.304692 q 0,-0.547411 -0.25821,-0.815952 -0.25305,-0.273706 -0.79013,-0.273706 -0.43897,0 -0.84178,0.129106 -0.40281,0.129107 -0.77464,0.304692 l -0.39248,-0.867596 q 0.46478,-0.24272 1.01736,-0.366662 0.55257,-0.129106 1.04318,-0.129106 1.08966,0 1.64223,0.475111 0.55774,0.475112 0.55774,1.492471 v 3.847372 z M 138.95371,58.6792 q 0.66102,0 1.05867,-0.366662 0.40281,-0.371826 0.40281,-1.038016 v -0.495768 l -0.73332,0.03099 q -0.85727,0.03099 -1.24975,0.289199 -0.38732,0.253048 -0.38732,0.779803 0,0.382155 0.22722,0.593889 0.22723,0.20657 0.68169,0.20657 z"
         style="font-style:normal;font-variant:normal;font-weight:600;font-stretch:normal;font-family:'Open Sans';-inkscape-font-specification:'Open Sans Semi-Bold';fill:#5c9238;fill-opacity:1;stroke-width:0.360562"
         id="path939" />
      <path
         d="m 144.53627,59.505482 h -1.2136 v -8.035585 h 1.2136 z"
         style="font-style:normal;font-variant:normal;font-weight:600;font-stretch:normal;font-family:'Open Sans';-inkscape-font-specification:'Open Sans Semi-Bold';fill:#5c9238;fill-opacity:1;stroke-width:0.360562"
         id="path941" />
      <path
         d="m 153.83193,59.505482 h -1.21876 v -3.522024 q 0,-0.655861 -0.24789,-0.976045 -0.24788,-0.325348 -0.77464,-0.325348 -0.70233,0 -1.03285,0.459619 -0.32535,0.454455 -0.32535,1.518292 v 2.845506 h -1.2136 v -5.711669 h 0.95023 l 0.17042,0.748817 h 0.062 q 0.23756,-0.407976 0.68685,-0.630039 0.45445,-0.222063 0.9967,-0.222063 1.31688,0 1.74552,0.89858 h 0.0826 q 0.25305,-0.423469 0.71267,-0.661025 0.45962,-0.237555 1.05351,-0.237555 1.02252,0 1.48731,0.516425 0.46994,0.516426 0.46994,1.575099 v 3.72343 h -1.2136 v -3.522024 q 0,-0.655861 -0.25304,-0.976045 -0.24789,-0.325348 -0.77464,-0.325348 -0.70751,0 -1.03802,0.444126 -0.32535,0.438962 -0.32535,1.353036 z"
         style="font-style:normal;font-variant:normal;font-weight:600;font-stretch:normal;font-family:'Open Sans';-inkscape-font-specification:'Open Sans Semi-Bold';fill:#5c9238;fill-opacity:1;stroke-width:0.360562"
         id="path943" />
      <path
         d="m 162.70413,59.505482 -0.24272,-0.795296 h -0.0413 q -0.41314,0.52159 -0.83144,0.712668 -0.41831,0.185913 -1.07417,0.185913 -0.84177,0 -1.31688,-0.454455 -0.46995,-0.454454 -0.46995,-1.2859 0,-0.883088 0.65586,-1.332378 0.65586,-0.449291 1.99857,-0.490605 l 0.98637,-0.03099 v -0.304692 q 0,-0.547411 -0.25821,-0.815952 -0.25305,-0.273706 -0.79013,-0.273706 -0.43896,0 -0.84178,0.129106 -0.40281,0.129107 -0.77464,0.304692 l -0.39248,-0.867596 q 0.46478,-0.24272 1.01736,-0.366662 0.55258,-0.129106 1.04318,-0.129106 1.08966,0 1.64223,0.475111 0.55774,0.475112 0.55774,1.492471 v 3.847372 z M 160.89664,58.6792 q 0.66102,0 1.05867,-0.366662 0.40281,-0.371826 0.40281,-1.038016 v -0.495768 l -0.73332,0.03099 q -0.85727,0.03099 -1.24975,0.289199 -0.38732,0.253048 -0.38732,0.779803 0,0.382155 0.22723,0.593889 0.22722,0.20657 0.68168,0.20657 z"
         style="font-style:normal;font-variant:normal;font-weight:600;font-stretch:normal;font-family:'Open Sans';-inkscape-font-specification:'Open Sans Semi-Bold';fill:#5c9238;fill-opacity:1;stroke-width:0.360562"
         id="path945" />
      <path
         d="m 167.56886,59.608767 q -1.29623,0 -1.97275,-0.753982 -0.67135,-0.759146 -0.67135,-2.174152 0,-1.440828 0.70234,-2.215467 0.7075,-0.774638 2.03988,-0.774638 0.90374,0 1.62674,0.335676 l -0.36666,0.976045 q -0.76948,-0.299527 -1.27041,-0.299527 -1.48214,0 -1.48214,1.967582 0,0.960552 0.36666,1.445992 0.37183,0.480276 1.08449,0.480276 0.81079,0 1.53379,-0.402812 v 1.058673 q -0.32535,0.191078 -0.69718,0.273706 -0.36666,0.08263 -0.89341,0.08263 z"
         style="font-style:normal;font-variant:normal;font-weight:600;font-stretch:normal;font-family:'Open Sans';-inkscape-font-specification:'Open Sans Semi-Bold';fill:#5c9238;fill-opacity:1;stroke-width:0.360562"
         id="path947" />
      <path
         d="m 175.52698,59.505482 h -1.21877 v -3.511696 q 0,-0.661025 -0.26854,-0.986373 -0.26338,-0.325348 -0.84177,-0.325348 -0.76431,0 -1.12581,0.459619 -0.35633,0.454455 -0.35633,1.52862 v 2.835178 h -1.21361 v -8.035585 h 1.21361 v 2.039882 q 0,0.490604 -0.062,1.048344 h 0.0775 q 0.24788,-0.413141 0.68684,-0.640368 0.44413,-0.227227 1.03286,-0.227227 2.07603,0 2.07603,2.091524 z"
         style="font-style:normal;font-variant:normal;font-weight:600;font-stretch:normal;font-family:'Open Sans';-inkscape-font-specification:'Open Sans Semi-Bold';fill:#5c9238;fill-opacity:1;stroke-width:0.360562"
         id="path949" />
      <path
         d="m 178.42929,59.505482 h -1.2136 v -5.711669 h 1.2136 z m -1.2859,-7.224797 q 0,-0.325348 0.17559,-0.500933 0.18075,-0.175585 0.51126,-0.175585 0.32018,0 0.49577,0.175585 0.18075,0.175585 0.18075,0.500933 0,0.309856 -0.18075,0.490605 -0.17559,0.175584 -0.49577,0.175584 -0.33051,0 -0.51126,-0.175584 -0.17559,-0.180749 -0.17559,-0.490605 z"
         style="font-style:normal;font-variant:normal;font-weight:600;font-stretch:normal;font-family:'Open Sans';-inkscape-font-specification:'Open Sans Semi-Bold';fill:#5c9238;fill-opacity:1;stroke-width:0.360562"
         id="path951" />
      <path
         d="m 185.18931,59.505482 h -1.21877 v -3.511696 q 0,-0.661025 -0.26854,-0.986373 -0.26338,-0.325348 -0.84177,-0.325348 -0.76948,0 -1.12581,0.454455 -0.35633,0.454454 -0.35633,1.523456 v 2.845506 h -1.2136 v -5.711669 h 0.95022 l 0.17042,0.748817 h 0.062 q 0.25821,-0.407976 0.73333,-0.630039 0.47511,-0.222063 1.0535,-0.222063 2.05538,0 2.05538,2.091524 z"
         style="font-style:normal;font-variant:normal;font-weight:600;font-stretch:normal;font-family:'Open Sans';-inkscape-font-specification:'Open Sans Semi-Bold';fill:#5c9238;fill-opacity:1;stroke-width:0.360562"
         id="path953" />
      <path
         d="m 189.37235,59.608767 q -1.33237,0 -2.08636,-0.774639 -0.74881,-0.779803 -0.74881,-2.143167 0,-1.399514 0.69717,-2.199974 0.69718,-0.800459 1.91594,-0.800459 1.13097,0 1.78683,0.686846 0.65586,0.686846 0.65586,1.890118 v 0.655861 h -3.80605 q 0.0258,0.831445 0.44929,1.280736 0.42347,0.444126 1.19294,0.444126 0.5061,0 0.9399,-0.09296 0.43896,-0.09812 0.93989,-0.320184 v 0.986374 q -0.44413,0.211734 -0.89858,0.299526 -0.45446,0.08779 -1.03802,0.08779 z m -0.22206,-4.999002 q -0.5784,0 -0.92957,0.366663 -0.346,0.366662 -0.41314,1.069001 h 2.59246 q -0.0103,-0.707503 -0.34084,-1.069001 -0.33051,-0.366663 -0.90891,-0.366663 z"
         style="font-style:normal;font-variant:normal;font-weight:600;font-stretch:normal;font-family:'Open Sans';-inkscape-font-specification:'Open Sans Semi-Bold';fill:#5c9238;fill-opacity:1;stroke-width:0.360562"
         id="path955" />
      <path
         d="m 197.8469,58.627558 q 0.44413,0 0.88825,-0.139435 v 0.914074 q -0.2014,0.08779 -0.52159,0.144599 -0.31502,0.06197 -0.65586,0.06197 -1.72486,0 -1.72486,-1.817819 v -3.077897 h -0.7798 v -0.537083 l 0.83661,-0.444126 0.41314,-1.208437 h 0.74881 v 1.270408 h 1.62675 v 0.919238 h -1.62675 v 3.05724 q 0,0.438962 0.2169,0.650697 0.22207,0.20657 0.5784,0.20657 z"
         style="font-style:normal;font-variant:normal;font-weight:600;font-stretch:normal;font-family:'Open Sans';-inkscape-font-specification:'Open Sans Semi-Bold';fill:#5c9238;fill-opacity:1;stroke-width:0.360562"
         id="path957" />
      <path
         d="m 202.7736,53.690528 q 0.36666,0 0.60422,0.05164 l -0.11878,1.130973 q -0.25821,-0.06197 -0.53708,-0.06197 -0.72816,0 -1.18262,0.475112 -0.44929,0.475112 -0.44929,1.234258 v 2.984941 h -1.2136 v -5.711669 h 0.95023 l 0.16009,1.00703 h 0.062 q 0.28403,-0.511262 0.73849,-0.810789 0.45962,-0.299526 0.98637,-0.299526 z"
         style="font-style:normal;font-variant:normal;font-weight:600;font-stretch:normal;font-family:'Open Sans';-inkscape-font-specification:'Open Sans Semi-Bold';fill:#5c9238;fill-opacity:1;stroke-width:0.360562"
         id="path959" />
      <path
         d="m 208.01016,59.505482 -0.24272,-0.795296 h -0.0413 q -0.41314,0.52159 -0.83145,0.712668 -0.4183,0.185913 -1.07416,0.185913 -0.84178,0 -1.31689,-0.454455 -0.46995,-0.454454 -0.46995,-1.2859 0,-0.883088 0.65586,-1.332378 0.65587,-0.449291 1.99857,-0.490605 l 0.98638,-0.03099 v -0.304692 q 0,-0.547411 -0.25822,-0.815952 -0.25305,-0.273706 -0.79013,-0.273706 -0.43896,0 -0.84177,0.129106 -0.40281,0.129107 -0.77464,0.304692 l -0.39248,-0.867596 q 0.46478,-0.24272 1.01735,-0.366662 0.55258,-0.129106 1.04318,-0.129106 1.08966,0 1.64224,0.475111 0.55774,0.475112 0.55774,1.492471 v 3.847372 z M 206.20267,58.6792 q 0.66103,0 1.05868,-0.366662 0.40281,-0.371826 0.40281,-1.038016 v -0.495768 l -0.73333,0.03099 q -0.85726,0.03099 -1.24975,0.289199 -0.38732,0.253048 -0.38732,0.779803 0,0.382155 0.22723,0.593889 0.22723,0.20657 0.68168,0.20657 z"
         style="font-style:normal;font-variant:normal;font-weight:600;font-stretch:normal;font-family:'Open Sans';-inkscape-font-specification:'Open Sans Semi-Bold';fill:#5c9238;fill-opacity:1;stroke-width:0.360562"
         id="path961" />
      <path
         d="m 215.59645,59.505482 h -1.21876 v -3.511696 q 0,-0.661025 -0.26855,-0.986373 -0.26337,-0.325348 -0.84177,-0.325348 -0.76947,0 -1.12581,0.454455 -0.35633,0.454454 -0.35633,1.523456 v 2.845506 h -1.2136 v -5.711669 h 0.95022 l 0.17042,0.748817 h 0.062 q 0.25822,-0.407976 0.73333,-0.630039 0.47511,-0.222063 1.05351,-0.222063 2.05537,0 2.05537,2.091524 z"
         style="font-style:normal;font-variant:normal;font-weight:600;font-stretch:normal;font-family:'Open Sans';-inkscape-font-specification:'Open Sans Semi-Bold';fill:#5c9238;fill-opacity:1;stroke-width:0.360562"
         id="path963" />
      <path
         d="m 221.12221,57.878741 q 0,0.836609 -0.60938,1.2859 -0.60938,0.444126 -1.74552,0.444126 -1.1413,0 -1.83331,-0.346005 v -1.048345 q 1.00703,0.464783 1.87462,0.464783 1.12065,0 1.12065,-0.676517 0,-0.216899 -0.12394,-0.361498 -0.12395,-0.1446 -0.40798,-0.299527 -0.28404,-0.154928 -0.79013,-0.35117 -0.98638,-0.382155 -1.33755,-0.76431 -0.346,-0.382155 -0.346,-0.991537 0,-0.733325 0.58872,-1.136137 0.59389,-0.407976 1.61125,-0.407976 1.00703,0 1.90561,0.407976 l -0.39248,0.914074 q -0.9244,-0.382156 -1.55444,-0.382156 -0.96055,0 -0.96055,0.547412 0,0.268541 0.24788,0.454454 0.25305,0.185914 1.09482,0.511262 0.70751,0.273706 1.02769,0.500933 0.32019,0.227227 0.47511,0.526754 0.15493,0.294363 0.15493,0.707504 z"
         style="font-style:normal;font-variant:normal;font-weight:600;font-stretch:normal;font-family:'Open Sans';-inkscape-font-specification:'Open Sans Semi-Bold';fill:#5c9238;fill-opacity:1;stroke-width:0.360562"
         id="path965" />
      <path
         d="m 223.64753,59.505482 h -1.2136 v -8.035585 h 1.2136 z"
         style="font-style:normal;font-variant:normal;font-weight:600;font-stretch:normal;font-family:'Open Sans';-inkscape-font-specification:'Open Sans Semi-Bold';fill:#5c9238;fill-opacity:1;stroke-width:0.360562"
         id="path967" />
      <path
         d="m 228.95639,59.505482 -0.24272,-0.795296 h -0.0413 q -0.41314,0.52159 -0.83145,0.712668 -0.4183,0.185913 -1.07416,0.185913 -0.84178,0 -1.31689,-0.454455 -0.46995,-0.454454 -0.46995,-1.2859 0,-0.883088 0.65586,-1.332378 0.65586,-0.449291 1.99857,-0.490605 l 0.98637,-0.03099 v -0.304692 q 0,-0.547411 -0.25821,-0.815952 -0.25305,-0.273706 -0.79013,-0.273706 -0.43896,0 -0.84177,0.129106 -0.40282,0.129107 -0.77464,0.304692 l -0.39249,-0.867596 q 0.46479,-0.24272 1.01736,-0.366662 0.55258,-0.129106 1.04318,-0.129106 1.08966,0 1.64224,0.475111 0.55774,0.475112 0.55774,1.492471 v 3.847372 z M 227.1489,58.6792 q 0.66103,0 1.05867,-0.366662 0.40282,-0.371826 0.40282,-1.038016 v -0.495768 l -0.73333,0.03099 q -0.85727,0.03099 -1.24975,0.289199 -0.38732,0.253048 -0.38732,0.779803 0,0.382155 0.22723,0.593889 0.22723,0.20657 0.68168,0.20657 z"
         style="font-style:normal;font-variant:normal;font-weight:600;font-stretch:normal;font-family:'Open Sans';-inkscape-font-specification:'Open Sans Semi-Bold';fill:#5c9238;fill-opacity:1;stroke-width:0.360562"
         id="path969" />
      <path
         d="m 233.64554,58.627558 q 0.44412,0 0.88825,-0.139435 v 0.914074 q -0.20141,0.08779 -0.52159,0.144599 -0.31502,0.06197 -0.65586,0.06197 -1.72486,0 -1.72486,-1.817819 v -3.077897 h -0.77981 v -0.537083 l 0.83661,-0.444126 0.41314,-1.208437 h 0.74882 v 1.270408 h 1.62674 v 0.919238 h -1.62674 v 3.05724 q 0,0.438962 0.2169,0.650697 0.22206,0.20657 0.5784,0.20657 z"
         style="font-style:normal;font-variant:normal;font-weight:600;font-stretch:normal;font-family:'Open Sans';-inkscape-font-specification:'Open Sans Semi-Bold';fill:#5c9238;fill-opacity:1;stroke-width:0.360562"
         id="path971" />
      <path
         d="m 240.74123,56.639319 q 0,1.399514 -0.71783,2.184481 -0.71784,0.784967 -1.99857,0.784967 -0.80046,0 -1.41501,-0.361498 -0.61455,-0.361498 -0.94506,-1.038016 -0.33051,-0.676518 -0.33051,-1.569934 0,-1.389186 0.71267,-2.168989 0.71266,-0.779802 2.00889,-0.779802 1.23943,0 1.96242,0.800459 0.723,0.795296 0.723,2.148332 z m -4.15723,0 q 0,1.97791 1.46148,1.97791 1.446,0 1.446,-1.97791 0,-1.957254 -1.45632,-1.957254 -0.76431,0 -1.11032,0.506097 -0.34084,0.506098 -0.34084,1.451157 z"
         style="font-style:normal;font-variant:normal;font-weight:600;font-stretch:normal;font-family:'Open Sans';-inkscape-font-specification:'Open Sans Semi-Bold';fill:#5c9238;fill-opacity:1;stroke-width:0.360562"
         id="path973" />
      <path
         d="m 245.03272,53.690528 q 0.36666,0 0.60422,0.05164 l -0.11878,1.130973 q -0.25821,-0.06197 -0.53708,-0.06197 -0.72816,0 -1.18262,0.475112 -0.44929,0.475112 -0.44929,1.234258 v 2.984941 h -1.2136 v -5.711669 h 0.95022 l 0.1601,1.00703 h 0.062 q 0.28403,-0.511262 0.73849,-0.810789 0.45961,-0.299526 0.98637,-0.299526 z"
         style="font-style:normal;font-variant:normal;font-weight:600;font-stretch:normal;font-family:'Open Sans';-inkscape-font-specification:'Open Sans Semi-Bold';fill:#5c9238;fill-opacity:1;stroke-width:0.360562"
         id="path975" />
      <path
         d="m 252.34015,59.608767 q -1.08449,0 -1.68355,-0.779803 h -0.0723 q 0.0723,0.722996 0.0723,0.877924 v 2.339409 h -1.2136 v -8.252484 h 0.98121 q 0.0413,0.160092 0.17042,0.76431 h 0.062 q 0.56807,-0.867595 1.70421,-0.867595 1.069,0 1.66289,0.774638 0.59905,0.774639 0.59905,2.174153 0,1.399514 -0.60938,2.184481 -0.60422,0.784967 -1.67322,0.784967 z m -0.29436,-4.926702 q -0.723,0 -1.05867,0.423469 -0.33052,0.423469 -0.33052,1.353036 v 0.180749 q 0,1.04318 0.33052,1.513127 0.33051,0.464783 1.07933,0.464783 0.63004,0 0.97088,-0.516425 0.34084,-0.516426 0.34084,-1.471814 0,-0.960552 -0.34084,-1.451156 -0.33568,-0.495769 -0.99154,-0.495769 z"
         style="font-style:normal;font-variant:normal;font-weight:600;font-stretch:normal;font-family:'Open Sans';-inkscape-font-specification:'Open Sans Semi-Bold';fill:#5c9238;fill-opacity:1;stroke-width:0.360562"
         id="path977" />
      <path
         d="m 261.09873,56.639319 q 0,1.399514 -0.71784,2.184481 -0.71783,0.784967 -1.99856,0.784967 -0.80046,0 -1.41501,-0.361498 -0.61455,-0.361498 -0.94506,-1.038016 -0.33051,-0.676518 -0.33051,-1.569934 0,-1.389186 0.71267,-2.168989 0.71266,-0.779802 2.00889,-0.779802 1.23942,0 1.96242,0.800459 0.723,0.795296 0.723,2.148332 z m -4.15723,0 q 0,1.97791 1.46148,1.97791 1.446,0 1.446,-1.97791 0,-1.957254 -1.45633,-1.957254 -0.76431,0 -1.11031,0.506097 -0.34084,0.506098 -0.34084,1.451157 z"
         style="font-style:normal;font-variant:normal;font-weight:600;font-stretch:normal;font-family:'Open Sans';-inkscape-font-specification:'Open Sans Semi-Bold';fill:#5c9238;fill-opacity:1;stroke-width:0.360562"
         id="path979" />
      <path
         d="m 267.17707,59.505482 -0.73849,-2.664757 q -0.13427,-0.423469 -0.48544,-1.967582 h -0.0465 q -0.29953,1.394349 -0.47511,1.97791 l -0.75915,2.654429 h -1.34271 l -1.60092,-5.711669 h 1.23943 l 0.72816,2.81452 q 0.24788,1.04318 0.35117,1.786833 h 0.031 q 0.0516,-0.376991 0.15493,-0.862431 0.10845,-0.490604 0.18591,-0.733324 l 0.8676,-3.005598 h 1.33238 l 0.84177,3.005598 q 0.0775,0.253048 0.19108,0.774638 0.11877,0.52159 0.13943,0.810789 h 0.0413 q 0.0775,-0.635204 0.36149,-1.776505 l 0.73849,-2.81452 h 1.21877 l -1.61125,5.711669 z"
         style="font-style:normal;font-variant:normal;font-weight:600;font-stretch:normal;font-family:'Open Sans';-inkscape-font-specification:'Open Sans Semi-Bold';fill:#5c9238;fill-opacity:1;stroke-width:0.360562"
         id="path981" />
      <path
         d="m 273.62722,59.608767 q -1.33238,0 -2.08636,-0.774639 -0.74882,-0.779803 -0.74882,-2.143167 0,-1.399514 0.69718,-2.199974 0.69717,-0.800459 1.91594,-0.800459 1.13097,0 1.78683,0.686846 0.65586,0.686846 0.65586,1.890118 v 0.655861 h -3.80606 q 0.0258,0.831445 0.44929,1.280736 0.42347,0.444126 1.19295,0.444126 0.5061,0 0.93989,-0.09296 0.43896,-0.09812 0.9399,-0.320184 v 0.986374 q -0.44413,0.211734 -0.89858,0.299526 -0.45446,0.08779 -1.03802,0.08779 z m -0.22206,-4.999002 q -0.5784,0 -0.92957,0.366663 -0.346,0.366662 -0.41314,1.069001 h 2.59246 q -0.0103,-0.707503 -0.34084,-1.069001 -0.33052,-0.366663 -0.90891,-0.366663 z"
         style="font-style:normal;font-variant:normal;font-weight:600;font-stretch:normal;font-family:'Open Sans';-inkscape-font-specification:'Open Sans Semi-Bold';fill:#5c9238;fill-opacity:1;stroke-width:0.360562"
         id="path983" />
      <path
         d="m 280.12386,53.690528 q 0.36666,0 0.60422,0.05164 l -0.11878,1.130973 q -0.25821,-0.06197 -0.53708,-0.06197 -0.72816,0 -1.18262,0.475112 -0.44929,0.475112 -0.44929,1.234258 v 2.984941 h -1.2136 v -5.711669 h 0.95022 l 0.1601,1.00703 h 0.062 q 0.28403,-0.511262 0.73849,-0.810789 0.45962,-0.299526 0.98637,-0.299526 z"
         style="font-style:normal;font-variant:normal;font-weight:600;font-stretch:normal;font-family:'Open Sans';-inkscape-font-specification:'Open Sans Semi-Bold';fill:#5c9238;fill-opacity:1;stroke-width:0.360562"
         id="path985" />
      <path
         d="m 284.28108,59.608767 q -1.33238,0 -2.08636,-0.774639 -0.74882,-0.779803 -0.74882,-2.143167 0,-1.399514 0.69717,-2.199974 0.69718,-0.800459 1.91594,-0.800459 1.13097,0 1.78684,0.686846 0.65586,0.686846 0.65586,1.890118 v 0.655861 h -3.80606 q 0.0258,0.831445 0.44929,1.280736 0.42347,0.444126 1.19294,0.444126 0.5061,0 0.9399,-0.09296 0.43896,-0.09812 0.93989,-0.320184 v 0.986374 q -0.44412,0.211734 -0.89858,0.299526 -0.45445,0.08779 -1.03801,0.08779 z m -0.22207,-4.999002 q -0.57839,0 -0.92956,0.366663 -0.34601,0.366662 -0.41314,1.069001 h 2.59245 q -0.0103,-0.707503 -0.34084,-1.069001 -0.33051,-0.366663 -0.90891,-0.366663 z"
         style="font-style:normal;font-variant:normal;font-weight:600;font-stretch:normal;font-family:'Open Sans';-inkscape-font-specification:'Open Sans Semi-Bold';fill:#5c9238;fill-opacity:1;stroke-width:0.360562"
         id="path987" />
      <path
         d="m 289.80683,59.608767 q -1.069,0 -1.66805,-0.774639 -0.59906,-0.774638 -0.59906,-2.174152 0,-1.404678 0.60422,-2.184481 0.60938,-0.784967 1.68355,-0.784967 1.12581,0 1.71453,0.831445 h 0.062 q -0.0878,-0.614547 -0.0878,-0.97088 v -2.081196 h 1.21877 v 8.035585 h -0.95023 l -0.21173,-0.748818 h -0.0568 q -0.58356,0.852103 -1.70937,0.852103 z m 0.32535,-0.981209 q 0.74882,0 1.08966,-0.418305 0.34084,-0.423469 0.35117,-1.368528 v -0.170421 q 0,-1.07933 -0.35117,-1.533784 -0.35117,-0.454455 -1.09999,-0.454455 -0.64036,0 -0.98637,0.52159 -0.34601,0.516426 -0.34601,1.476978 0,0.950223 0.33568,1.451156 0.33568,0.495769 1.00703,0.495769 z"
         style="font-style:normal;font-variant:normal;font-weight:600;font-stretch:normal;font-family:'Open Sans';-inkscape-font-specification:'Open Sans Semi-Bold';fill:#5c9238;fill-opacity:1;stroke-width:0.360562"
         id="path989" />
      <path
         d="m 300.13535,53.690528 q 1.069,0 1.66289,0.774638 0.59905,0.774639 0.59905,2.174153 0,1.404678 -0.60422,2.189645 -0.60422,0.779803 -1.67838,0.779803 -1.0845,0 -1.68355,-0.779803 h -0.0826 l -0.22206,0.676518 h -0.90891 v -8.035585 h 1.2136 v 1.910775 q 0,0.211735 -0.0207,0.63004 -0.0206,0.418304 -0.031,0.531918 h 0.0516 q 0.5784,-0.852102 1.70421,-0.852102 z m -0.31502,0.991537 q -0.73333,0 -1.05868,0.433798 -0.32018,0.428633 -0.33051,1.440828 v 0.08263 q 0,1.04318 0.33051,1.513127 0.33052,0.464783 1.07933,0.464783 0.64554,0 0.97605,-0.511261 0.33567,-0.511262 0.33567,-1.476978 0,-1.946925 -1.33237,-1.946925 z"
         style="font-style:normal;font-variant:normal;font-weight:600;font-stretch:normal;font-family:'Open Sans';-inkscape-font-specification:'Open Sans Semi-Bold';fill:#5c9238;fill-opacity:1;stroke-width:0.360562"
         id="path991" />
      <path
         d="m 302.93954,53.793813 h 1.32205 l 1.16196,3.237989 q 0.26338,0.692011 0.35117,1.301393 h 0.0413 q 0.0465,-0.284034 0.17042,-0.686846 0.12394,-0.407976 1.31172,-3.852536 h 1.31172 l -2.44269,6.470815 q -0.66619,1.781669 -2.22064,1.781669 -0.40281,0 -0.78496,-0.08779 v -0.960552 q 0.2737,0.06197 0.62487,0.06197 0.87793,0 1.23426,-1.017358 l 0.21174,-0.537083 z"
         style="font-style:normal;font-variant:normal;font-weight:600;font-stretch:normal;font-family:'Open Sans';-inkscape-font-specification:'Open Sans Semi-Bold';fill:#5c9238;fill-opacity:1;stroke-width:0.360562"
         id="path993" />
      <path
         d="m 313.43848,59.505482 h -1.2136 v -8.035585 h 1.2136 z"
         style="font-style:normal;font-variant:normal;font-weight:600;font-stretch:normal;font-family:'Open Sans';-inkscape-font-specification:'Open Sans Semi-Bold';fill:#5c9238;fill-opacity:1;stroke-width:0.360562"
         id="path995" />
      <path
         d="m 317.66801,59.608767 q -1.33238,0 -2.08636,-0.774639 -0.74882,-0.779803 -0.74882,-2.143167 0,-1.399514 0.69718,-2.199974 0.69717,-0.800459 1.91593,-0.800459 1.13098,0 1.78684,0.686846 0.65586,0.686846 0.65586,1.890118 v 0.655861 h -3.80606 q 0.0258,0.831445 0.44929,1.280736 0.42347,0.444126 1.19294,0.444126 0.5061,0 0.9399,-0.09296 0.43896,-0.09812 0.93989,-0.320184 v 0.986374 q -0.44412,0.211734 -0.89858,0.299526 -0.45445,0.08779 -1.03801,0.08779 z m -0.22207,-4.999002 q -0.57839,0 -0.92956,0.366663 -0.34601,0.366662 -0.41314,1.069001 h 2.59246 q -0.0103,-0.707503 -0.34085,-1.069001 -0.33051,-0.366663 -0.90891,-0.366663 z"
         style="font-style:normal;font-variant:normal;font-weight:600;font-stretch:normal;font-family:'Open Sans';-inkscape-font-specification:'Open Sans Semi-Bold';fill:#5c9238;fill-opacity:1;stroke-width:0.360562"
         id="path997" />
      <path
         d="m 326.08059,59.505482 h -1.21877 v -3.522024 q 0,-0.655861 -0.24788,-0.976045 -0.24789,-0.325348 -0.77464,-0.325348 -0.70234,0 -1.03285,0.459619 -0.32535,0.454455 -0.32535,1.518292 v 2.845506 h -1.2136 v -5.711669 h 0.95022 l 0.17042,0.748817 h 0.062 q 0.23756,-0.407976 0.68685,-0.630039 0.45445,-0.222063 0.9967,-0.222063 1.31689,0 1.74552,0.89858 h 0.0826 q 0.25305,-0.423469 0.71267,-0.661025 0.45961,-0.237555 1.0535,-0.237555 1.02253,0 1.48731,0.516425 0.46995,0.516426 0.46995,1.575099 v 3.72343 h -1.2136 v -3.522024 q 0,-0.655861 -0.25305,-0.976045 -0.24789,-0.325348 -0.77464,-0.325348 -0.7075,0 -1.03802,0.444126 -0.32534,0.438962 -0.32534,1.353036 z"
         style="font-style:normal;font-variant:normal;font-weight:600;font-stretch:normal;font-family:'Open Sans';-inkscape-font-specification:'Open Sans Semi-Bold';fill:#5c9238;fill-opacity:1;stroke-width:0.360562"
         id="path999" />
      <path
         d="m 336.44525,56.639319 q 0,1.399514 -0.71783,2.184481 -0.71783,0.784967 -1.99857,0.784967 -0.80046,0 -1.415,-0.361498 -0.61455,-0.361498 -0.94506,-1.038016 -0.33052,-0.676518 -0.33052,-1.569934 0,-1.389186 0.71267,-2.168989 0.71267,-0.779802 2.0089,-0.779802 1.23942,0 1.96242,0.800459 0.72299,0.795296 0.72299,2.148332 z m -4.15722,0 q 0,1.97791 1.46148,1.97791 1.44599,0 1.44599,-1.97791 0,-1.957254 -1.45632,-1.957254 -0.76431,0 -1.11031,0.506097 -0.34084,0.506098 -0.34084,1.451157 z"
         style="font-style:normal;font-variant:normal;font-weight:600;font-stretch:normal;font-family:'Open Sans';-inkscape-font-specification:'Open Sans Semi-Bold';fill:#5c9238;fill-opacity:1;stroke-width:0.360562"
         id="path1001" />
      <path
         d="m 342.86442,59.505482 h -1.21877 v -3.511696 q 0,-0.661025 -0.26854,-0.986373 -0.26338,-0.325348 -0.84177,-0.325348 -0.76948,0 -1.12581,0.454455 -0.35633,0.454454 -0.35633,1.523456 v 2.845506 h -1.2136 v -5.711669 h 0.95022 l 0.17042,0.748817 h 0.062 q 0.25821,-0.407976 0.73333,-0.630039 0.47511,-0.222063 1.0535,-0.222063 2.05538,0 2.05538,2.091524 z"
         style="font-style:normal;font-variant:normal;font-weight:600;font-stretch:normal;font-family:'Open Sans';-inkscape-font-specification:'Open Sans Semi-Bold';fill:#5c9238;fill-opacity:1;stroke-width:0.360562"
         id="path1003" />
      <path
         d="m 348.39017,57.878741 q 0,0.836609 -0.60938,1.2859 -0.60938,0.444126 -1.74552,0.444126 -1.1413,0 -1.83331,-0.346005 v -1.048345 q 1.00703,0.464783 1.87462,0.464783 1.12065,0 1.12065,-0.676517 0,-0.216899 -0.12395,-0.361498 -0.12394,-0.1446 -0.40797,-0.299527 -0.28404,-0.154928 -0.79013,-0.35117 -0.98638,-0.382155 -1.33755,-0.76431 -0.346,-0.382155 -0.346,-0.991537 0,-0.733325 0.58872,-1.136137 0.59389,-0.407976 1.61125,-0.407976 1.00703,0 1.90561,0.407976 l -0.39248,0.914074 q -0.9244,-0.382156 -1.55444,-0.382156 -0.96055,0 -0.96055,0.547412 0,0.268541 0.24788,0.454454 0.25305,0.185914 1.09482,0.511262 0.70751,0.273706 1.02769,0.500933 0.32018,0.227227 0.47511,0.526754 0.15493,0.294363 0.15493,0.707504 z"
         style="font-style:normal;font-variant:normal;font-weight:600;font-stretch:normal;font-family:'Open Sans';-inkscape-font-specification:'Open Sans Semi-Bold';fill:#5c9238;fill-opacity:1;stroke-width:0.360562"
         id="path1005" />
    </g>
  </g>
</svg>
