<?xml version="1.0" encoding="UTF-8" standalone="no"?>
<svg
   xmlns:dc="http://purl.org/dc/elements/1.1/"
   xmlns:cc="http://creativecommons.org/ns#"
   xmlns:rdf="http://www.w3.org/1999/02/22-rdf-syntax-ns#"
   xmlns:svg="http://www.w3.org/2000/svg"
   xmlns="http://www.w3.org/2000/svg"
   xmlns:sodipodi="http://sodipodi.sourceforge.net/DTD/sodipodi-0.dtd"
   xmlns:inkscape="http://www.inkscape.org/namespaces/inkscape"
   width="158.15601mm"
   height="137.11501mm"
   viewBox="0 0 158.15601 137.11501"
   version="1.1"
   id="svg1042"
   inkscape:version="1.0.2-2 (e86c870879, 2021-01-15)"
   sodipodi:docname="limon trans v1.svg">
  <defs
     id="defs1036" />
  <sodipodi:namedview
     id="base"
     pagecolor="#ffffff"
     bordercolor="#666666"
     borderopacity="1.0"
     inkscape:pageopacity="0.0"
     inkscape:pageshadow="2"
     inkscape:zoom="0.35"
     inkscape:cx="400"
     inkscape:cy="560"
     inkscape:document-units="mm"
     inkscape:current-layer="layer1"
     inkscape:document-rotation="0"
     showgrid="false"
     inkscape:window-width="1262"
     inkscape:window-height="1041"
     inkscape:window-x="26"
     inkscape:window-y="0"
     inkscape:window-maximized="0" />
  <metadata
     id="metadata1039">
    <rdf:RDF>
      <cc:Work
         rdf:about="">
        <dc:format>image/svg+xml</dc:format>
        <dc:type
           rdf:resource="http://purl.org/dc/dcmitype/StillImage" />
        <dc:title></dc:title>
      </cc:Work>
    </rdf:RDF>
  </metadata>
  <g
     inkscape:label="Capa 1"
     inkscape:groupmode="layer"
     id="layer1">
    <g
       id="g1635"
       transform="translate(-44.898186,-6.2817833)">
      <path
         d="m 105.74797,13.259751 c -1.23022,-0.0642 -2.45805,-0.0591 -3.79309,0.002 -5.964632,0.2728 -8.584622,1.2034 -10.446682,3.52502 l -0.67808,0.84528 1.73195,2.07287 1.90864,1.92856 c 1.74279,-0.0786 2.82106,-0.11728 4.47712,-0.55247 9.236902,-2.42848 18.690982,-2.1355 27.170902,0.65874 0.92975,-0.69168 3.28583,-4.55356 3.34047,-5.5904 0.034,-0.64018 -0.38922,-1.10002 -1.04338,-1.13427 -0.28554,-0.017 -1.35421,0.19631 -2.37545,0.46953 -1.74836,0.46766 -2.01873,0.48857 -4.63086,0.35566 -2.43391,-0.12365 -3.21181,-0.24773 -6.34429,-1.01245 -3.89295,-0.95024 -6.61071,-1.42674 -9.31725,-1.56807 z"
         style="fill:#5c9238;fill-opacity:1;stroke:#000000;stroke-width:1;stroke-miterlimit:4;stroke-dasharray:none;stroke-opacity:1"
         id="path939" />
      <path
         id="path889"
         style="fill:#ffcd20;fill-opacity:1;stroke:#000000;stroke-width:1;stroke-miterlimit:4;stroke-dasharray:none;stroke-opacity:1"
         d="m 124.0579,16.787668 c -17.80225,0 -24.137732,0.895874 -32.093672,4.538223 l -5.46528,2.501657 c 0,0 -3.40054,2.158272 -5.15266,3.94291 l -3.45665,3.350184 c -4.98266,4.828849 -9.33458,12.036393 -11.53416,19.103744 -1.69289,5.439249 -1.91411,9.530985 -1.91411,35.364245 v 29.213209 h 17.59842 17.59892 l 1.431452,-4.29432 1.43142,-4.29431 h 21.55632 21.55682 l 1.43142,4.29431 1.43145,4.29432 h 17.59892 17.59842 V 85.588631 c 0,-25.83326 -0.22122,-29.924996 -1.91411,-35.364245 -2.19961,-7.067351 -6.55153,-14.274895 -11.53416,-19.103744 l -3.45665,-3.350184 c 0,0 -2.33648,-2.51823 -5.15266,-3.94291 l -5.46531,-2.501657 c -7.95581,-3.642349 -14.29192,-4.538223 -32.09414,-4.538223 z m 26.78491,38.611595 c 11.95086,7.4e-5 21.63892,9.688138 21.639,21.638988 2.1e-4,11.95106 -9.68793,21.63944 -21.639,21.63952 -4.51972,8e-5 -8.71445,-1.38727 -12.18528,-3.7569 h -5.24981 -5.72524 v 3.18122 l -5.51027,-3.18122 -3.39463,-1.96009 3.39463,-1.96007 5.51027,-3.18121 v 3.18121 h 5.72524 0.90794 c -3.18733,-3.76902 -5.11244,-8.63986 -5.11236,-13.96246 8e-5,-11.95105 9.68846,-21.639189 21.63951,-21.638988 z m -53.483542,0.189135 a 21.639137,21.639137 0 0 1 13.435362,4.676203 h 5.55625 5.72521 v -3.181204 l 5.51027,3.181204 3.39463,1.96009 -3.39463,1.96008 -5.51027,3.1812 v -3.1812 h -5.72521 -1.72498 a 21.639137,21.639137 0 0 1 4.37235,13.04262 21.639137,21.639137 0 0 1 -21.638982,21.639 21.639137,21.639137 0 0 1 -21.6395,-21.639 21.639137,21.639137 0 0 1 21.6395,-21.638993 z m -39.99137,3.586345 -3.03546,1.569928 c -4.37962,2.26478 -8.29173,8.71598 -8.85785,14.6079 -0.61328,6.38259 2.54008,13.25217 7.68892,16.75091 2.0147,1.36906 3.78468,2.48925 3.93361,2.48925 0.14896,0 0.27078,-7.96907 0.27078,-17.70899 z m 133.380502,0 v 17.766358 17.76585 l 3.15847,-1.82523 c 8.55292,-4.94272 11.33461,-17.84124 5.68751,-26.37461 -1.52596,-2.30586 -4.14087,-4.89907 -5.81052,-5.76244 z M 97.000628,120.86348 h -16.27963 -16.27963 v 10.44172 c 0,5.74278 0.30658,10.74783 0.68162,11.12285 0.37492,0.37481 27.08887,0.56385 59.364332,0.42063 l 58.68273,-0.26043 0.28681,-10.86239 0.2868,-10.86291 h -16.2905 -16.29047 l 0.70435,4.16718 c 0.51141,3.0271 0.32824,4.40495 -0.66922,5.0369 -0.75517,0.4785 -13.02604,0.87723 -27.26861,0.88522 -28.867692,0.0172 -28.826542,0.0268 -27.606582,-6.47607 z" />
      <text
         xml:space="preserve"
         style="font-style:normal;font-weight:normal;font-size:34.3518px;line-height:1.25;font-family:sans-serif;fill:#5c9238;fill-opacity:1;stroke:#000000;stroke-width:1;stroke-miterlimit:4;stroke-dasharray:none;stroke-opacity:1"
         x="85.131149"
         y="89.710236"
         id="text869"><tspan
           sodipodi:role="line"
           x="85.131149"
           y="89.710236"
           style="font-style:normal;font-variant:normal;font-weight:bold;font-stretch:normal;font-family:'Open Sans';-inkscape-font-specification:'Open Sans Bold';fill:#5c9238;fill-opacity:1;stroke:#000000;stroke-width:1;stroke-miterlimit:4;stroke-dasharray:none;stroke-opacity:1"
           id="tspan871">A</tspan></text>
      <path
         id="path983"
         style="color:#000000;font-style:normal;font-variant:normal;font-weight:normal;font-stretch:normal;font-size:29.2759px;line-height:1.25;font-family:sans-serif;-inkscape-font-specification:sans-serif;font-variant-ligatures:normal;font-variant-position:normal;font-variant-caps:normal;font-variant-numeric:normal;font-variant-alternates:normal;font-variant-east-asian:normal;font-feature-settings:normal;font-variation-settings:normal;text-indent:0;text-align:start;text-decoration:none;text-decoration-line:none;text-decoration-style:solid;text-decoration-color:#000000;letter-spacing:normal;word-spacing:normal;text-transform:none;writing-mode:lr-tb;direction:ltr;text-orientation:mixed;dominant-baseline:auto;baseline-shift:baseline;text-anchor:start;white-space:normal;shape-padding:0;shape-margin:0;inline-size:0;clip-rule:nonzero;display:inline;overflow:visible;visibility:visible;isolation:auto;mix-blend-mode:normal;color-interpolation:sRGB;color-interpolation-filters:linearRGB;solid-color:#000000;solid-opacity:1;vector-effect:none;fill:#5c9238;fill-opacity:1;fill-rule:nonzero;stroke:#000000;stroke-width:1;stroke-linecap:butt;stroke-linejoin:miter;stroke-miterlimit:4;stroke-dasharray:none;stroke-dashoffset:0;stroke-opacity:1;color-rendering:auto;image-rendering:auto;shape-rendering:auto;text-rendering:auto;enable-background:accumulate;stop-color:#000000"
         d="m 149.06049,62.513561 v 0.50023 3.84524 h -10.97864 v 3.17345 h 5.62083 c 0.91583,3.55344 2.60046,6.71827 5.03224,9.48004 -3.0553,2.53245 -6.47268,4.35427 -10.28877,5.43429 l -0.52295,0.1478 1.38441,3.69176 0.44855,-0.13539 c 4.00349,-1.2086 7.8813,-3.42391 11.6365,-6.59185 3.60588,3.01317 7.33775,5.04311 11.19569,6.02651 l 0.43407,0.11059 1.38237,-3.68453 -0.53848,-0.13953 c -4.17819,-1.08056 -7.51184,-2.72091 -10.06811,-4.87464 2.34688,-2.9448 3.85541,-6.10524 4.50205,-9.46505 h 5.48338 v -3.17345 h -11.09287 v -4.34547 h -0.61547 z m -1.81641,7.51892 h 7.60883 c -0.55512,2.29087 -1.74437,4.60067 -3.59719,6.93084 -2.17075,-2.45577 -3.49071,-4.7702 -4.01164,-6.93084 z" />
      <path
         d="m 71.967678,6.8709314 c -0.63112,-0.0786 -0.92049,-0.1415 -1.60036,-0.034 -2.59997,0.4126 -1.88666,3.9881296 0.85481,4.6997396 2.15623,0.55966 6.04247,2.20484 8.50239,3.5995 2.49294,1.41332 4.51401,2.8984 6.77269,4.97602 1.28065,1.17799 1.25677,1.36704 -0.16444,1.2974 -2.12203,-0.10411 -6.07358,1.20174 -8.39664,2.77478 -2.638,1.7863 -5.04221,4.505 -6.92757,7.83336 -2.27121,4.00959 -3.27694,8.08453 -3.12402,12.65858 0.0884,2.64089 0.28172,4.04991 1.21501,8.85201 1.02132,5.25489 1.13575,6.47151 0.94667,10.0813 -0.12111,2.3109 -0.10241,3.29624 0.0705,3.78077 0.18696,0.52231 0.33738,0.66053 0.74224,0.68174 1.13211,0.0591 2.79722,-1.49902 5.53513,-5.18028 0.80304,-1.07979 2.51214,-3.21206 3.79781,-4.73849 5.50351,-6.53405 8.53039,-12.02609 9.80102,-17.78302 0.72176,-3.27011 1.10754,-6.14768 1.1658,-8.69003 -0.017,-0.0128 -0.0298,-0.0213 -0.0455,-0.034 0.0871,-3.63014 -0.4926,-5.9002 -1.37103,-7.8849 -0.36756,-0.83088 -0.21926,-1.1378 -0.004,-1.31639 0.47701,-0.39857 2.07476,-0.94498 4.37953,-2.04204 0.14635,-0.0697 0.20202,-0.0838 0.31106,-0.12987 l -1.41772,-0.34534 c -5.19319,-6.00274 -11.6019,-10.2150596 -19.22616,-12.6370796 -0.7238,-0.26175 -0.94098,-0.31868 -1.81609,-0.42066 z"
         style="fill:#78b454;fill-opacity:1;stroke:#000000;stroke-width:1;stroke-miterlimit:4;stroke-dasharray:none;stroke-opacity:1"
         id="path941"
         sodipodi:nodetypes="csssssssssssssssccsssccccc" />
    </g>
  </g>
</svg>
